<svg fill="#000000" xmlns="http://www.w3.org/2000/svg" xmlns:xlink="http://www.w3.org/1999/xlink" xml:space="preserve" version="1.1" style="shape-rendering:geometricPrecision;text-rendering:geometricPrecision;image-rendering:optimizeQuality;" viewBox="0 0 85525 85525" x="0px" y="0px" fill-rule="evenodd" clip-rule="evenodd"><defs><style type="text/css">
   
    .fil0 {fill:#000000;fill-rule:nonzero}
   
  </style></defs><g><path class="fil0" d="M20942 18726c6178,-5618 14000,-8427 21820,-8427 8308,0 16616,3169 22955,9509l0 0c6339,6339 9509,14647 9509,22954 0,8308 -3170,16617 -9509,22955l0 0c-6339,6339 -14647,9509 -22955,9509l0 -6c-8311,0 -16620,-3168 -22954,-9503l0 0c-6340,-6338 -9509,-14647 -9509,-22955 0,-7820 2809,-15642 8427,-21820l-1452 -1452 -6175 6174 -2215 -2215 14565 -14565 2215 2215 -6174 6175 1452 1452zm-19375 -18726l82391 0 1567 0 0 1567 0 82391 0 1567 -1567 0 -82391 0 -1567 0 0 -1567 0 -82391 0 -1567 1567 0zm80824 3134l-79257 0 0 79257 79257 0 0 -79257zm-13881 41188l-25748 2 -3776 0 2669 -2669 18206 -18206 2357 -2357 147 -147c-5152,-4637 -11551,-7126 -18041,-7471l0 3541 -3122 0 0 -3541c-6492,344 -12890,2834 -18042,7471l2504 2504 -2215 2215 -2504 -2504c-4637,5152 -7127,11550 -7471,18042l3541 0 0 3122 -3541 0c344,6490 2834,12889 7471,18041l2504 -2504 2215 2215 -2504 2504c5153,4639 11549,7131 18035,7476l0 -3546 3134 0 0 3541c6490,-346 12885,-2836 18036,-7471l-2504 -2504 2215 -2215 2504 2504c4635,-5151 7125,-11546 7471,-18036l-3541 0 0 -7z"/></g></svg>