<svg fill="#000000" xmlns="http://www.w3.org/2000/svg" data-name="Layer 1" viewBox="0 0 100 100" x="0px" y="0px"><title>Health Icons</title><path d="M82.61,48.49A3,3,0,0,0,77.79,48H69.9a19.81,19.81,0,0,0-1.68-6.21l6.87-4a2.93,2.93,0,0,0,3.5-1.34h0a3,3,0,1,0-5.52-2.11l-6.86,4a20.14,20.14,0,0,0-4.54-4.54l4-6.86A3,3,0,1,0,62,24a3,3,0,0,0,.16.93l-4,6.85A19.82,19.82,0,0,0,52,30.1V22.21a3,3,0,1,0-4,0V30.1a19.82,19.82,0,0,0-6.21,1.68l-4-6.85a3,3,0,0,0-1.35-3.52h0a3,3,0,1,0-3,5.2,3,3,0,0,0,.89.32l4,6.86a20.14,20.14,0,0,0-4.54,4.54l-6.86-4A3,3,0,1,0,24,38a3,3,0,0,0,.93-.16l6.85,4A19.81,19.81,0,0,0,30.1,48H22.21a3,3,0,0,0-3.72-.59h0A3,3,0,1,0,22.21,52H30.1a19.81,19.81,0,0,0,1.68,6.21l-6.85,4a3,3,0,0,0-3.52,1.35h0a3,3,0,1,0,5.52,2.11l6.86-4a20.14,20.14,0,0,0,4.54,4.54l-4,6.86A3,3,0,1,0,38,76a3,3,0,0,0-.16-.93l4-6.85A19.82,19.82,0,0,0,48,69.9v7.89a3,3,0,1,0,4,0V69.9a19.82,19.82,0,0,0,6.21-1.68l4,6.85a3,3,0,0,0,1.35,3.52h0a3,3,0,1,0,3-5.2,3,3,0,0,0-.89-.32l-4-6.86a20.14,20.14,0,0,0,4.54-4.54l6.86,4A3,3,0,1,0,76,62a3,3,0,0,0-.93.16l-6.85-4A19.81,19.81,0,0,0,69.9,52h7.91a3,3,0,0,0,3.7.59h0a3,3,0,0,0,1.1-4.1ZM50,66A16,16,0,1,1,66,50,16,16,0,0,1,50,66Z"/><circle cx="58.5" cy="46.5" r="3.5"/><circle cx="47.5" cy="46.5" r="3.5"/><circle cx="41.5" cy="54.5" r="3.5"/><circle cx="53" cy="60" r="3"/><circle cx="60" cy="54" r="3"/><circle cx="53" cy="39" r="3"/><circle cx="39" cy="47" r="3"/><circle cx="52" cy="53" r="3"/><circle cx="46" cy="61" r="3"/><circle cx="44" cy="40" r="3"/></svg>