<svg fill="#000000" xmlns="http://www.w3.org/2000/svg" xmlns:xlink="http://www.w3.org/1999/xlink" version="1.1" x="0px" y="0px" viewBox="0 0 100 100" enable-background="new 0 0 100 100" xml:space="preserve"><g><g><circle cx="88.002" cy="55.018" r="2.093"/><circle cx="17.2" cy="20.56" r="4.3"/><path d="M26.891,19.156c0-5.938-4.831-10.77-10.77-10.77c-5.938,0-10.769,4.831-10.769,10.77c0,5.401,4,9.873,9.19,10.641    c-0.022,0.115-0.035,0.232-0.029,0.354c0.02,0.418-0.28,0.703-1.252,1.403c-1.034,0.743-2.596,1.868-2.496,3.979    c0.1,2.11,1.763,3.08,2.864,3.723c1.034,0.604,1.359,0.858,1.379,1.276c0.02,0.418-0.279,0.704-1.252,1.404    c-1.034,0.744-2.596,1.869-2.495,3.98c0.101,2.111,1.763,3.084,2.863,3.726c1.035,0.606,1.361,0.861,1.381,1.281    c0.02,0.419-0.28,0.705-1.252,1.405c-1.034,0.745-2.596,1.87-2.495,3.982c0.04,0.827,0.742,1.466,1.57,1.426    c0.111-0.005,0.218-0.022,0.321-0.05c0.665-0.18,1.14-0.802,1.106-1.52c-0.02-0.419,0.28-0.705,1.252-1.405    c1.034-0.745,2.596-1.87,2.495-3.982c-0.101-2.112-1.763-3.084-2.863-3.727c-1.035-0.605-1.36-0.861-1.38-1.28    c-0.02-0.417,0.28-0.703,1.251-1.403c1.034-0.745,2.597-1.87,2.496-3.982c-0.1-2.11-1.763-3.081-2.863-3.723    c-1.034-0.604-1.359-0.858-1.379-1.275c-0.02-0.417,0.279-0.702,1.252-1.402c1.034-0.743,2.597-1.868,2.496-3.981    c-0.003-0.061-0.017-0.119-0.027-0.178C22.78,29.156,26.891,24.632,26.891,19.156z M16.121,27.925    c-4.835,0-8.769-3.934-8.769-8.77s3.934-8.77,8.769-8.77s8.77,3.934,8.77,8.77S20.957,27.925,16.121,27.925z"/><path d="M87.659,48.203c-3.854,0-6.989,3.136-6.989,6.989c0,2.735,1.583,5.101,3.877,6.249c-0.2,0.237-0.612,0.425-1.428,0.733    c-1.192,0.448-2.994,1.127-3.447,3.191c-0.453,2.063,0.899,3.434,1.794,4.341c0.841,0.853,1.088,1.183,0.999,1.591    c-0.09,0.409-0.453,0.606-1.575,1.029c-1.192,0.449-2.994,1.128-3.447,3.192s0.898,3.437,1.792,4.344    c0.842,0.854,1.089,1.186,0.999,1.597c-0.09,0.41-0.454,0.607-1.575,1.03c-1.192,0.449-2.994,1.129-3.447,3.194    c-0.177,0.809,0.334,1.608,1.144,1.786c0.108,0.024,0.216,0.035,0.323,0.035c0.689,0,1.31-0.478,1.464-1.179    c0.09-0.41,0.454-0.607,1.575-1.03c1.192-0.449,2.994-1.129,3.447-3.194c0.453-2.065-0.898-3.438-1.793-4.345    c-0.841-0.854-1.089-1.186-0.999-1.596c0.089-0.408,0.453-0.605,1.574-1.028c1.192-0.449,2.995-1.128,3.448-3.193    c0.453-2.063-0.899-3.434-1.794-4.341c-0.841-0.853-1.089-1.183-0.999-1.591c0.089-0.408,0.453-0.604,1.574-1.027    c1.111-0.418,2.739-1.052,3.323-2.807c0.053,0.001,0.106,0.008,0.159,0.008c3.854,0,6.989-3.136,6.989-6.989    S91.512,48.203,87.659,48.203z M87.659,60.181c-0.313,0-0.617-0.037-0.914-0.092c-0.085-0.036-0.172-0.067-0.265-0.087    c-0.041-0.009-0.082-0.009-0.124-0.015c-2.117-0.577-3.686-2.497-3.686-4.795c0-2.751,2.238-4.989,4.989-4.989    s4.989,2.238,4.989,4.989S90.41,60.181,87.659,60.181z"/><path fill="none" d="M74.756,20.416l-0.674,0.335c-0.41,0.203-0.907,0.037-1.11-0.372c-0.173-0.346-0.067-0.745,0.213-0.986    c-0.407-0.225-0.822-0.427-1.244-0.609l-4.164,0.785c-0.449,0.085-0.881-0.211-0.966-0.66c-0.084-0.449,0.213-0.882,0.66-0.966    l0.869-0.164c-1.224-0.176-2.461-0.195-3.684-0.054l1.629,2.605c0.195,0.312,0.156,0.703-0.067,0.97    c-0.054,0.065-0.12,0.123-0.196,0.171c-0.387,0.242-0.898,0.124-1.141-0.263l-1.641-2.623l-0.34-0.543    c-0.887,0.216-1.754,0.517-2.591,0.903l-0.041,0.285c-0.023,0.158-0.089,0.298-0.184,0.412c-0.178,0.213-0.459,0.331-0.753,0.289    c-0.178-0.026-0.324-0.117-0.445-0.233c-0.487,0.295-0.963,0.612-1.416,0.969c0.11,0.184,0.15,0.41,0.091,0.633    c-0.032,0.122-0.09,0.23-0.166,0.321c-0.199,0.238-0.525,0.354-0.845,0.27l-0.346-0.091c-0.294,0.294-0.582,0.597-0.854,0.922    l-1.437,1.716l2.974,1.738l0.559,0.327c0.395,0.23,0.528,0.737,0.297,1.132c-0.024,0.041-0.051,0.079-0.081,0.114    c-0.255,0.304-0.698,0.39-1.051,0.183l-0.801-0.468l-2.974-1.738l-2.38,2.844c0.228,0.282,0.263,0.685,0.041,0.994    c-0.013,0.017-0.026,0.034-0.039,0.05c-0.254,0.304-0.684,0.371-1.028,0.182l-2.046,2.445l-0.013,3.231    c-0.001,0.201-0.073,0.385-0.193,0.528c-0.153,0.182-0.382,0.298-0.638,0.297c-0.457-0.002-0.826-0.374-0.824-0.831l0.005-1.238    l-4.004,4.783l-0.004,1.018c-0.001,0.201-0.073,0.385-0.193,0.528c-0.153,0.182-0.382,0.297-0.638,0.297    c-0.206-0.001-0.388-0.084-0.532-0.209l-1.881,2.247l0.695,0.209c0.438,0.132,0.685,0.593,0.554,1.031    c-0.034,0.111-0.088,0.209-0.158,0.292c-0.206,0.246-0.546,0.36-0.874,0.261l-1.373-0.414l-1.622,1.938l1.289,2.67    c0.146,0.302,0.091,0.65-0.111,0.891c-0.073,0.087-0.165,0.161-0.274,0.214c-0.412,0.198-0.907,0.026-1.105-0.386l-0.964-1.998    l-2.372,2.834c0.343,0.045,0.636,0.294,0.706,0.652c0.05,0.255-0.024,0.505-0.178,0.69c-0.118,0.141-0.282,0.243-0.476,0.281    l-1.685,0.328l-2.874,3.434c0.075,0.058,0.146,0.124,0.199,0.209c0.197,0.312,0.16,0.705-0.065,0.973    c-0.054,0.064-0.118,0.122-0.193,0.169l-2.275,1.437l-2.875,3.435l-0.416,2.881c-0.023,0.158-0.089,0.298-0.184,0.412    c-0.178,0.213-0.459,0.331-0.753,0.289c-0.452-0.066-0.766-0.485-0.701-0.938l0.033-0.23l-0.539,0.644    c-0.292,0.349-0.56,0.711-0.814,1.079c0.22,0.201,0.331,0.507,0.25,0.815c-0.032,0.122-0.09,0.23-0.166,0.321    c-0.199,0.238-0.525,0.354-0.845,0.27l-0.081-0.021c-0.567,1.066-0.975,2.187-1.251,3.331l1.669,0.976l0.559,0.327    c0.395,0.23,0.528,0.737,0.297,1.132c-0.024,0.041-0.051,0.079-0.081,0.114c-0.255,0.304-0.698,0.39-1.051,0.183l-0.801-0.468    l-0.907-0.53c-0.148,1.301-0.111,2.612,0.096,3.901c0.106-0.155,0.257-0.281,0.451-0.335l4.527-1.257    c0.441-0.122,0.897,0.136,1.019,0.577c0.075,0.272,0.005,0.551-0.163,0.752c-0.104,0.124-0.246,0.219-0.412,0.266l-4.527,1.256    c-0.232,0.064-0.465,0.019-0.655-0.099c0.103,0.417,0.225,0.828,0.365,1.235l2.965,1.268c0.42,0.18,0.615,0.666,0.435,1.086    c-0.033,0.077-0.076,0.145-0.127,0.206c-0.228,0.273-0.616,0.377-0.96,0.229l-1.33-0.569c0.827,1.503,1.928,2.886,3.321,4.052    c0.438,0.366,0.894,0.692,1.361,0.997l0.038-4.143c0.006-0.457,0.379-0.824,0.835-0.82c0.456,0.004,0.824,0.378,0.82,0.835    l-0.04,4.422c-0.002,0.199-0.074,0.381-0.193,0.523c-0.003,0.003-0.007,0.004-0.009,0.007c2.161,1.074,4.518,1.557,6.855,1.472    c-0.003-0.331,0.189-0.645,0.515-0.777c0.424-0.17,0.906,0.036,1.076,0.461l0.064,0.161c0.317-0.049,0.631-0.108,0.944-0.178    c-0.021-0.101-0.026-0.207-0.006-0.315c0.083-0.451,0.514-0.747,0.962-0.666l1.384,0.252c1.088-0.448,2.125-1.039,3.089-1.761    c-0.324,0.029-0.648-0.135-0.808-0.441l-2.384-4.583c-0.211-0.405-0.053-0.906,0.353-1.116c0.405-0.212,0.905-0.053,1.116,0.352    l2.384,4.583c0.107,0.206,0.112,0.434,0.045,0.638c0.272-0.232,0.542-0.467,0.799-0.723c0.002-0.014-0.003-0.027,0-0.041    c0.067-0.332,0.324-0.577,0.636-0.645c0.084-0.095,0.176-0.18,0.258-0.278l1.634-1.953l-4.064-2.093    c-0.407-0.21-0.566-0.709-0.357-1.114c0.206-0.408,0.707-0.567,1.114-0.357l4.396,2.264l1.705-2.037l-0.219-1.736    c-0.057-0.453,0.265-0.868,0.718-0.924c0.454-0.057,0.867,0.264,0.925,0.718l0.026,0.209l0.496-0.593l-1.847-1.818    c-0.325-0.32-0.313-0.834-0.01-1.171c0.321-0.325,0.845-0.33,1.171-0.009l1.752,1.724l1.737-2.075    c-0.288-0.062-0.536-0.266-0.624-0.569l-1.223-4.249c-0.127-0.44,0.126-0.898,0.566-1.024c0.439-0.126,0.898,0.127,1.024,0.566    l1.196,4.154l1.234-1.474c-0.022-0.236,0.047-0.48,0.232-0.666c0.144-0.142,0.327-0.209,0.514-0.225l0.891-1.064    c-0.095-0.131-0.165-0.281-0.169-0.454l-0.14-5.292c-0.014-0.457,0.347-0.837,0.805-0.849c0.457-0.012,0.837,0.348,0.849,0.805    l0.107,4.054l7.539-9.007l-2.933-0.503c-0.45-0.077-0.753-0.505-0.676-0.956c0.078-0.45,0.506-0.753,0.956-0.676l0.958,0.164    l2.924,0.502l3.523-4.209l-3.325-0.508c-0.452-0.069-0.763-0.491-0.693-0.943c0.069-0.454,0.491-0.762,0.943-0.694l4.318,0.659    l5.408-6.461l-2.304-0.419c-0.45-0.081-0.748-0.513-0.666-0.962c0.083-0.451,0.513-0.747,0.962-0.666l3.23,0.588l0.868-1.037    c1.506-1.799,2.48-3.866,2.962-6.012l-2.618-1.348c-0.407-0.21-0.566-0.709-0.357-1.114c0.206-0.408,0.707-0.567,1.114-0.357    l2.146,1.105c0.072-0.727,0.076-1.457,0.037-2.185l-4.334-0.743c-0.45-0.077-0.753-0.505-0.676-0.956    c0.078-0.451,0.506-0.753,0.956-0.676l3.869,0.664c-0.285-1.629-0.861-3.207-1.702-4.666l-0.003,2.063    c0,0.202-0.073,0.386-0.193,0.53c-0.152,0.182-0.381,0.297-0.636,0.297c-0.457,0-0.827-0.372-0.827-0.829l0.006-4.356    c-0.469-0.531-0.967-1.042-1.527-1.51C75.222,20.749,74.987,20.587,74.756,20.416z M65.815,23.397    c0.455,0.04,0.792,0.442,0.751,0.897l-0.478,5.384c-0.015,0.175-0.084,0.332-0.189,0.457c-0.168,0.2-0.427,0.319-0.708,0.293    c-0.455-0.04-0.792-0.442-0.751-0.897l0.478-5.384C64.956,23.693,65.359,23.356,65.815,23.397z M57.271,22.811    c0.035-0.456,0.435-0.795,0.893-0.757l2.033,0.168l3.331,0.275c0.455,0.037,0.794,0.437,0.756,0.892    c-0.014,0.177-0.084,0.336-0.19,0.463c-0.167,0.199-0.424,0.317-0.703,0.294l-4.494-0.37l-0.869-0.072    C57.572,23.666,57.233,23.267,57.271,22.811z M59.315,26.119c-0.318-0.328-0.315-0.852,0.019-1.17    c0.329-0.317,0.853-0.309,1.171,0.019l3.075,3.177c0.298,0.307,0.309,0.785,0.04,1.105c-0.018,0.022-0.038,0.044-0.059,0.064    c-0.329,0.317-0.853,0.309-1.171-0.019L59.315,26.119z M59.978,29.239c0.441-0.122,0.897,0.136,1.019,0.577    c0.075,0.272,0.005,0.551-0.163,0.752c-0.104,0.124-0.246,0.219-0.412,0.266l-4.527,1.256c-0.441,0.122-0.897-0.136-1.019-0.577    c-0.122-0.44,0.139-0.896,0.576-1.019L59.978,29.239z M52.063,31.938c-0.053-0.12-0.088-0.248-0.078-0.388l0.294-4.138    c0.031-0.455,0.426-0.799,0.884-0.767c0.456,0.033,0.799,0.429,0.767,0.884l-0.169,2.379l-0.125,1.759    c-0.013,0.18-0.083,0.343-0.191,0.472c-0.165,0.197-0.417,0.315-0.693,0.295C52.436,32.412,52.183,32.209,52.063,31.938z     M53.415,33.19c0.179-0.421,0.666-0.616,1.087-0.436l4.068,1.74c0.42,0.18,0.615,0.666,0.435,1.086    c-0.033,0.077-0.076,0.145-0.127,0.206c-0.228,0.273-0.616,0.377-0.96,0.229l-4.068-1.74C53.43,34.097,53.235,33.61,53.415,33.19z     M51.026,36.762l-1.435-1.87l-1.256-1.637c-0.279-0.364-0.207-0.883,0.152-1.161c0.363-0.278,0.883-0.21,1.161,0.153l1.032,1.344    l1.66,2.163c0.241,0.314,0.222,0.744-0.021,1.034c-0.039,0.046-0.082,0.088-0.131,0.126    C51.824,37.193,51.304,37.125,51.026,36.762z M53.88,42.36l-0.578-4.143c-0.063-0.452,0.254-0.87,0.705-0.934    c0.453-0.063,0.871,0.253,0.935,0.706l0.578,4.143c0.033,0.241-0.041,0.472-0.186,0.645c-0.127,0.151-0.309,0.259-0.519,0.288    C54.362,43.129,53.944,42.813,53.88,42.36z M57.755,45.57c0.202-0.416,0.698-0.58,1.107-0.38c0.41,0.201,0.58,0.697,0.379,1.107    l-1.945,3.971c-0.03,0.062-0.067,0.118-0.109,0.168c-0.125,0.149-0.297,0.243-0.482,0.278c-0.169,0.032-0.35,0.015-0.516-0.066    c-0.294-0.144-0.458-0.441-0.457-0.748c0.001-0.121,0.021-0.243,0.078-0.359L57.755,45.57z M56.055,45.926    c-0.026,0.047-0.056,0.089-0.089,0.129c-0.25,0.299-0.684,0.388-1.037,0.191L50.1,43.553c-0.399-0.222-0.542-0.726-0.32-1.126    c0.227-0.4,0.727-0.543,1.126-0.319l4.829,2.693C56.134,45.023,56.277,45.527,56.055,45.926z M43.326,37.566    c0.219-0.4,0.726-0.542,1.126-0.32l2.162,1.202l1.702,0.946c0.399,0.222,0.543,0.726,0.321,1.126    c-0.026,0.047-0.057,0.09-0.09,0.129c-0.25,0.298-0.684,0.387-1.036,0.191l-1.978-1.1l-1.885-1.048    C43.248,38.47,43.105,37.966,43.326,37.566z M47.369,42.9c0.071-0.126,0.163-0.241,0.298-0.318    c0.398-0.225,0.902-0.087,1.128,0.311l1.302,2.291l0.884,1.555c0.176,0.309,0.131,0.683-0.085,0.94    c-0.062,0.074-0.137,0.138-0.225,0.189c-0.398,0.225-0.902,0.087-1.128-0.311l-2.186-3.845    C47.208,43.449,47.231,43.145,47.369,42.9z M51.199,55.233c0.132-0.437,0.593-0.685,1.031-0.553l4.235,1.276    c0.438,0.132,0.685,0.593,0.553,1.031c-0.033,0.111-0.088,0.209-0.157,0.292c-0.206,0.246-0.546,0.36-0.874,0.261l-4.235-1.276    C51.314,56.132,51.067,55.67,51.199,55.233z M50.43,56.317c0.184,0.31,0.142,0.691-0.077,0.953    c-0.059,0.07-0.13,0.131-0.212,0.181c-0.394,0.233-0.901,0.104-1.134-0.29l-2.256-3.804c-0.234-0.394-0.1-0.899,0.289-1.134    c0.394-0.233,0.901-0.104,1.134,0.29L50.43,56.317z M48.434,50.827c-0.447-0.096-0.731-0.535-0.635-0.982    c0.094-0.448,0.534-0.732,0.983-0.636l4.325,0.927c0.447,0.096,0.731,0.535,0.635,0.982c-0.029,0.137-0.09,0.258-0.174,0.358    c-0.191,0.228-0.497,0.345-0.809,0.278L48.434,50.827z M43.782,45.677l-0.936-2.727l-0.499-1.455    c-0.149-0.433,0.082-0.903,0.514-1.052c0.432-0.148,0.903,0.082,1.051,0.513l0.175,0.51l1.26,3.671    c0.098,0.285,0.031,0.586-0.149,0.801c-0.093,0.112-0.217,0.2-0.365,0.251C44.4,46.339,43.93,46.109,43.782,45.677z M44.437,47.8    c0.065-0.454,0.485-0.766,0.938-0.7c0.452,0.066,0.766,0.485,0.7,0.937l-0.633,4.378c-0.023,0.158-0.089,0.298-0.184,0.412    c-0.178,0.213-0.459,0.331-0.754,0.288c-0.452-0.066-0.766-0.485-0.7-0.937L44.437,47.8z M39.25,50.24l0.03-3.03l0.014-1.391    c0.004-0.458,0.379-0.824,0.836-0.819c0.289,0.003,0.53,0.162,0.675,0.389c0.085,0.131,0.145,0.279,0.143,0.447l-0.045,4.421    c-0.002,0.199-0.074,0.381-0.192,0.523c-0.154,0.184-0.385,0.3-0.644,0.297C39.612,51.071,39.245,50.696,39.25,50.24z     M32.685,54.393c-0.153-0.431,0.075-0.903,0.507-1.055l1.355-0.474l2.819-0.986c0.432-0.151,0.904,0.077,1.054,0.508    c0.101,0.286,0.034,0.589-0.147,0.805c-0.092,0.11-0.215,0.198-0.36,0.25l-4.174,1.46c-0.277,0.097-0.562,0.025-0.777-0.143    C32.843,54.664,32.739,54.548,32.685,54.393z M39.03,55.732l1.615,4.35c0.107,0.289,0.043,0.599-0.142,0.82    c-0.089,0.107-0.206,0.193-0.346,0.244c-0.429,0.159-0.905-0.06-1.064-0.488l-1.615-4.35c-0.159-0.429,0.06-0.906,0.488-1.064    C38.395,55.085,38.87,55.303,39.03,55.732z M28.911,55.567c0.084-0.449,0.518-0.744,0.967-0.66l2.555,0.483l1.293,0.245    c0.449,0.085,0.744,0.518,0.66,0.967c-0.027,0.144-0.091,0.272-0.178,0.377c-0.186,0.223-0.484,0.341-0.789,0.283l-2.203-0.417    l-1.645-0.311C29.122,56.449,28.827,56.016,28.911,55.567z M32.926,59.68c-0.322-0.325-0.311-0.839,0.005-1.17    c0.325-0.322,0.849-0.319,1.171,0.006l3.199,3.228c0.304,0.306,0.318,0.789,0.047,1.113c-0.017,0.02-0.034,0.039-0.052,0.058    c-0.325,0.322-0.849,0.319-1.171-0.006L32.926,59.68z M39.059,62.991c0.41-0.203,0.907-0.037,1.11,0.372    c0.151,0.304,0.098,0.656-0.107,0.9c-0.071,0.085-0.16,0.157-0.265,0.21l-3.96,1.971c-0.41,0.203-0.907,0.037-1.11-0.372    c-0.204-0.409-0.035-0.905,0.372-1.11L39.059,62.991z M28.267,58.8c0.002-0.002,0.003-0.004,0.005-0.005    c0.291-0.348,0.809-0.397,1.16-0.108l0.144,0.118l2.471,2.034c0.354,0.291,0.404,0.812,0.113,1.165    c-0.002,0.002-0.003,0.004-0.005,0.005c-0.291,0.348-0.809,0.397-1.16,0.108l-2.482-2.042l-0.133-0.109    C28.027,59.674,27.977,59.153,28.267,58.8z M29.226,63.634l4.345-0.819c0.449-0.085,0.881,0.211,0.966,0.66    c0.048,0.253-0.026,0.501-0.179,0.685c-0.119,0.142-0.285,0.245-0.481,0.282l-4.345,0.819c-0.449,0.085-0.881-0.211-0.966-0.66    C28.482,64.151,28.778,63.719,29.226,63.634z M34.251,68.092l2.32,2.677c0.27,0.312,0.266,0.767,0.01,1.073    c-0.028,0.034-0.059,0.065-0.093,0.095c-0.345,0.299-0.869,0.262-1.167-0.083L33,69.177c-0.3-0.346-0.265-0.869,0.083-1.168    C33.429,67.71,33.952,67.747,34.251,68.092z M26.637,66.899l-1.641-2.623l-1.528-2.442c-0.242-0.388-0.124-0.895,0.263-1.141    c0.387-0.242,0.898-0.124,1.141,0.263l1.241,1.985l1.927,3.08c0.195,0.312,0.156,0.703-0.067,0.97    c-0.054,0.065-0.12,0.123-0.196,0.171C27.39,67.404,26.879,67.286,26.637,66.899z M19.025,68.503    c0.035-0.456,0.435-0.796,0.893-0.757l2.033,0.168l3.331,0.275c0.455,0.037,0.794,0.437,0.756,0.892    c-0.014,0.177-0.084,0.336-0.19,0.463c-0.167,0.199-0.424,0.317-0.703,0.294l-4.494-0.37l-0.869-0.072    C19.327,69.358,18.988,68.959,19.025,68.503z M21.07,71.812c-0.318-0.328-0.316-0.85,0.019-1.17    c0.329-0.317,0.853-0.309,1.171,0.019l3.075,3.177c0.298,0.307,0.309,0.785,0.04,1.105c-0.018,0.022-0.038,0.044-0.059,0.064    c-0.329,0.317-0.853,0.309-1.171-0.019L21.07,71.812z M28.896,82.832l0.75,4.358c0.043,0.249-0.031,0.491-0.181,0.672    c-0.121,0.145-0.293,0.249-0.494,0.284c-0.451,0.077-0.879-0.225-0.956-0.676l-0.75-4.358c-0.078-0.45,0.225-0.878,0.675-0.956    C28.391,82.079,28.819,82.381,28.896,82.832z M31.926,80.158l2.62,4.767c0.169,0.308,0.122,0.676-0.091,0.93    c-0.064,0.077-0.143,0.143-0.236,0.194c-0.4,0.22-0.904,0.074-1.123-0.326l-2.62-4.768c-0.22-0.402-0.071-0.904,0.327-1.124    C31.203,79.611,31.706,79.758,31.926,80.158z M29.589,78.373c0.021,0.228-0.053,0.444-0.19,0.608    c-0.135,0.162-0.332,0.272-0.557,0.293l-4.403,0.411c-0.455,0.043-0.858-0.292-0.901-0.747c-0.043-0.454,0.293-0.858,0.747-0.901    l4.403-0.411C29.143,77.582,29.546,77.917,29.589,78.373z M27.654,75.827c-0.168,0.2-0.427,0.319-0.708,0.293    c-0.455-0.04-0.792-0.442-0.751-0.897l0.478-5.384c0.038-0.455,0.442-0.792,0.897-0.751c0.455,0.04,0.792,0.442,0.751,0.897    l-0.478,5.384C27.829,75.545,27.759,75.702,27.654,75.827z M34.761,74.484l-0.029,4.424c-0.001,0.2-0.074,0.383-0.193,0.525    c-0.153,0.183-0.383,0.299-0.64,0.297c-0.457-0.003-0.825-0.376-0.823-0.833l0.029-4.424c0.003-0.457,0.376-0.825,0.833-0.822    C34.396,73.654,34.763,74.026,34.761,74.484z M31.956,72.37c0.098,0.285,0.031,0.586-0.149,0.801    c-0.093,0.112-0.217,0.2-0.365,0.251c-0.431,0.149-0.903-0.082-1.051-0.513l-1.437-4.183c-0.148-0.433,0.081-0.903,0.514-1.052    c0.431-0.149,0.903,0.082,1.051,0.513L31.956,72.37z M43.248,76.141c-0.026,0.149-0.09,0.282-0.181,0.39    c-0.183,0.219-0.474,0.337-0.775,0.285l-4.359-0.748c-0.45-0.077-0.753-0.505-0.676-0.956c0.079-0.451,0.506-0.753,0.956-0.676    l4.359,0.748C43.023,75.263,43.325,75.69,43.248,76.141z M40.377,72.498c0,0.202-0.073,0.386-0.193,0.53    c-0.152,0.182-0.381,0.297-0.636,0.297c-0.457,0-0.827-0.372-0.827-0.829l0.007-5.306c0-0.456,0.371-0.827,0.829-0.827    c0.457,0,0.827,0.372,0.827,0.829L40.377,72.498z M47.353,69.539c0.129,0.297,0.069,0.627-0.125,0.86    c-0.08,0.096-0.183,0.175-0.306,0.229l-4.06,1.753c-0.42,0.181-0.907-0.012-1.088-0.432c-0.182-0.419,0.014-0.906,0.431-1.088    l4.06-1.753C46.685,68.926,47.172,69.119,47.353,69.539z M47.012,66.436c-0.026,0.149-0.09,0.282-0.181,0.39    c-0.183,0.219-0.474,0.337-0.775,0.285l-4.359-0.748c-0.45-0.077-0.753-0.505-0.676-0.956c0.079-0.45,0.506-0.753,0.956-0.676    l4.359,0.748C46.787,65.558,47.089,65.985,47.012,66.436z M52.105,64.395c-0.004,0.005-0.007,0.009-0.011,0.014    c-0.288,0.344-0.801,0.396-1.152,0.114l-3.449-2.768c-0.356-0.286-0.414-0.807-0.128-1.163c0.285-0.378,0.807-0.414,1.163-0.128    l3.449,2.768C52.334,63.517,52.391,64.039,52.105,64.395z M46.922,59.678c-0.009,0.01-0.018,0.021-0.027,0.031l-3.002,3.247    c-0.31,0.336-0.834,0.356-1.169,0.046c-0.337-0.311-0.381-0.827-0.046-1.17l3.002-3.247c0.31-0.336,0.834-0.356,1.169-0.046    C47.175,58.841,47.203,59.342,46.922,59.678z M46.392,57.731c-0.281,0.336-0.78,0.396-1.134,0.128l-4.253-3.217    c-0.365-0.276-0.436-0.795-0.161-1.159c0.265-0.376,0.794-0.437,1.159-0.161l4.253,3.217c0.365,0.276,0.436,0.795,0.161,1.159    C46.41,57.71,46.401,57.721,46.392,57.731z M52.383,61.629c-0.426,0.165-0.906-0.048-1.07-0.474    c-0.164-0.427,0.051-0.905,0.474-1.07l4.128-1.593c0.426-0.165,0.906,0.048,1.07,0.474c0.112,0.291,0.049,0.606-0.138,0.829    c-0.087,0.104-0.201,0.188-0.336,0.241L52.383,61.629z M61.901,59.093c-0.014,0.016-0.028,0.032-0.042,0.048l-3.088,3.167    c-0.319,0.327-0.843,0.334-1.171,0.015c-0.327-0.32-0.322-0.84-0.015-1.171l3.088-3.167c0.319-0.327,0.843-0.334,1.171-0.015    C62.155,58.274,62.175,58.765,61.901,59.093z M60.518,52.014l-1.016,1.041l-2.073,2.125c-0.32,0.327-0.843,0.333-1.17,0.015    c-0.327-0.32-0.326-0.827-0.015-1.171l1.985-2.035l1.104-1.132c0.32-0.327,0.843-0.333,1.17-0.015    c0.312,0.304,0.332,0.795,0.057,1.123C60.547,51.983,60.532,51.998,60.518,52.014z M63.796,48.456l-0.015,4.422    c-0.001,0.201-0.073,0.385-0.193,0.528c-0.152,0.182-0.381,0.298-0.637,0.297c-0.457-0.002-0.827-0.374-0.825-0.831l0.015-4.422    c0.001-0.456,0.372-0.827,0.83-0.825C63.428,47.627,63.798,47.999,63.796,48.456z M58.297,43.855    c-0.169,0.202-0.432,0.321-0.714,0.293c-0.455-0.045-0.789-0.449-0.744-0.904l0.427-4.401c0.045-0.455,0.449-0.789,0.903-0.744    c0.455,0.045,0.789,0.449,0.744,0.904l-0.427,4.401C58.469,43.576,58.4,43.731,58.297,43.855z M66.611,45.649    c-0.025,0.151-0.09,0.285-0.181,0.394c-0.182,0.218-0.471,0.337-0.772,0.286l-4.341-0.727c-0.451-0.075-0.755-0.502-0.679-0.953    c0.075-0.453,0.502-0.756,0.953-0.68l4.341,0.727C66.383,44.772,66.687,45.198,66.611,45.649z M62.729,41.314    c-0.153,0.183-0.385,0.299-0.642,0.297c-0.456-0.004-0.824-0.378-0.82-0.835l0.04-4.422c0.005-0.456,0.379-0.824,0.835-0.82    c0.456,0.004,0.824,0.378,0.82,0.835l-0.04,4.422C62.92,40.99,62.848,41.172,62.729,41.314z M71.166,42.478l1.324,3.302    c0.117,0.293,0.055,0.613-0.135,0.839c-0.085,0.101-0.195,0.184-0.326,0.237c-0.424,0.17-0.906-0.036-1.076-0.461l-1.324-3.302    c-0.169-0.424,0.036-0.906,0.461-1.076C70.514,41.847,70.996,42.053,71.166,42.478z M67.141,37.14l0.75,4.358    c0.043,0.249-0.031,0.491-0.181,0.672c-0.121,0.145-0.293,0.249-0.494,0.284c-0.451,0.077-0.879-0.225-0.956-0.676l-0.75-4.358    c-0.077-0.451,0.225-0.878,0.675-0.956C66.636,36.387,67.064,36.689,67.141,37.14z M70.171,34.466l2.62,4.767    c0.169,0.308,0.122,0.676-0.091,0.93c-0.064,0.077-0.143,0.143-0.236,0.194c-0.4,0.22-0.904,0.074-1.123-0.326l-2.62-4.767    c-0.22-0.402-0.071-0.904,0.327-1.124C69.448,33.919,69.951,34.066,70.171,34.466z M67.835,32.68    c0.021,0.228-0.053,0.444-0.19,0.608c-0.135,0.162-0.332,0.272-0.557,0.293l-4.403,0.411c-0.455,0.043-0.858-0.292-0.901-0.747    c-0.043-0.454,0.293-0.858,0.747-0.901l4.403-0.411C67.388,31.89,67.792,32.225,67.835,32.68z M75.882,34.183l2.384,4.583    c0.159,0.306,0.108,0.665-0.1,0.913c-0.068,0.081-0.153,0.151-0.252,0.202c-0.405,0.212-0.905,0.053-1.116-0.352l-2.384-4.583    c-0.211-0.405-0.053-0.906,0.353-1.116C75.171,33.619,75.671,33.777,75.882,34.183z M73.007,28.791l-0.029,4.424    c-0.001,0.2-0.074,0.383-0.193,0.525c-0.153,0.183-0.383,0.299-0.64,0.297c-0.457-0.003-0.825-0.376-0.823-0.833l0.029-4.424    c0.003-0.457,0.376-0.825,0.833-0.822C72.641,27.961,73.009,28.334,73.007,28.791z M68.764,22.496l1.437,4.183    c0.098,0.285,0.031,0.586-0.149,0.801c-0.093,0.112-0.217,0.2-0.365,0.251c-0.431,0.149-0.903-0.082-1.051-0.513l-1.437-4.183    c-0.148-0.432,0.081-0.903,0.514-1.052C68.145,21.833,68.616,22.064,68.764,22.496z M74.816,25.077    c0.27,0.312,0.266,0.767,0.01,1.073c-0.028,0.034-0.059,0.065-0.093,0.095c-0.345,0.299-0.869,0.262-1.167-0.083l-2.32-2.677    c-0.3-0.346-0.266-0.868,0.083-1.168c0.345-0.299,0.869-0.262,1.167,0.083L74.816,25.077z"/><path fill="#000000" d="M60.085,19.64c0.095-0.113,0.161-0.254,0.184-0.412l0.041-0.285c-0.486,0.224-0.961,0.473-1.423,0.753    c0.121,0.116,0.267,0.207,0.445,0.233C59.626,19.971,59.907,19.853,60.085,19.64z"/><path fill="#000000" d="M46.541,36.292c0.256,0.001,0.486-0.114,0.638-0.297c0.12-0.143,0.192-0.327,0.193-0.528l0.013-3.231    l-1.663,1.987l-0.005,1.238C45.716,35.919,46.084,36.291,46.541,36.292z"/><path fill="#000000" d="M50.46,29.611c0.014-0.016,0.026-0.033,0.039-0.05c0.222-0.309,0.187-0.712-0.041-0.994l-1.026,1.226    C49.775,29.981,50.205,29.914,50.46,29.611z"/><path fill="#000000" d="M57.396,21.619c0.076-0.091,0.133-0.199,0.166-0.321c0.059-0.224,0.019-0.449-0.091-0.633    c-0.441,0.347-0.861,0.728-1.265,1.133l0.346,0.091C56.871,21.972,57.197,21.857,57.396,21.619z"/><path fill="#000000" d="M58.896,23.775l4.494,0.37c0.28,0.023,0.537-0.095,0.703-0.294c0.106-0.127,0.176-0.286,0.19-0.463    c0.037-0.455-0.301-0.855-0.756-0.892l-3.331-0.275l-2.033-0.168c-0.458-0.038-0.858,0.301-0.893,0.757    c-0.037,0.455,0.301,0.855,0.756,0.892L58.896,23.775z"/><path fill="#000000" d="M65.51,37.42l0.75,4.358c0.077,0.451,0.505,0.753,0.956,0.676c0.201-0.035,0.372-0.14,0.494-0.284    c0.151-0.18,0.224-0.422,0.181-0.672l-0.75-4.358c-0.077-0.451-0.505-0.753-0.956-0.676C65.735,36.542,65.433,36.969,65.51,37.42z    "/><path fill="#000000" d="M74.766,33.831c-0.406,0.21-0.564,0.71-0.353,1.116l2.384,4.583c0.211,0.405,0.711,0.564,1.116,0.352    c0.1-0.052,0.185-0.121,0.252-0.202c0.208-0.249,0.259-0.608,0.1-0.913l-2.384-4.583C75.671,33.777,75.171,33.619,74.766,33.831z"/><path fill="#000000" d="M72.169,42.146c-0.082,0.449,0.217,0.881,0.666,0.962l2.304,0.419l1.222-1.46l-3.23-0.588    C72.682,41.399,72.252,41.695,72.169,42.146z"/><path fill="#000000" d="M70.09,42.017c-0.424,0.17-0.63,0.652-0.461,1.076l1.324,3.302c0.17,0.425,0.652,0.631,1.076,0.461    c0.131-0.053,0.241-0.135,0.326-0.237c0.189-0.226,0.252-0.546,0.135-0.839l-1.324-3.302    C70.996,42.053,70.514,41.847,70.09,42.017z"/><path fill="#000000" d="M66.811,18.909c0.085,0.449,0.518,0.745,0.966,0.66l4.164-0.785c-1.162-0.501-2.373-0.829-3.601-1.006    l-0.869,0.164C67.023,18.027,66.727,18.459,66.811,18.909z"/><path fill="#000000" d="M64.441,29.531c-0.041,0.455,0.296,0.857,0.751,0.897c0.281,0.025,0.54-0.093,0.708-0.293    c0.105-0.125,0.174-0.282,0.189-0.457l0.478-5.384c0.041-0.455-0.296-0.857-0.751-0.897c-0.456-0.041-0.859,0.296-0.897,0.751    L64.441,29.531z"/><path fill="#000000" d="M54.875,31.514c0.122,0.441,0.578,0.699,1.019,0.577l4.527-1.256c0.167-0.047,0.308-0.142,0.412-0.266    c0.169-0.201,0.239-0.481,0.163-0.752c-0.122-0.441-0.578-0.699-1.019-0.577l-4.527,1.256    C55.014,30.618,54.753,31.075,54.875,31.514z"/><path fill="#000000" d="M75.503,29.421c-0.077,0.451,0.225,0.878,0.676,0.956l4.334,0.743c-0.031-0.574-0.087-1.145-0.186-1.711    l-3.869-0.664C76.009,28.668,75.581,28.97,75.503,29.421z"/><path fill="#000000" d="M71.329,22.317c-0.349,0.3-0.383,0.822-0.083,1.168l2.32,2.677c0.299,0.345,0.822,0.382,1.167,0.083    c0.034-0.03,0.065-0.062,0.093-0.095c0.256-0.306,0.26-0.761-0.01-1.073l-2.32-2.677C72.197,22.055,71.674,22.018,71.329,22.317z"/><path fill="#000000" d="M72.972,20.379c0.203,0.409,0.7,0.575,1.11,0.372l0.674-0.335c-0.509-0.376-1.03-0.724-1.571-1.023    C72.905,19.634,72.799,20.033,72.972,20.379z"/><path fill="#000000" d="M67.713,21.982c-0.433,0.149-0.663,0.62-0.514,1.052l1.437,4.183c0.148,0.432,0.62,0.662,1.051,0.513    c0.148-0.051,0.272-0.139,0.365-0.251c0.18-0.215,0.246-0.516,0.149-0.801l-1.437-4.183    C68.616,22.064,68.145,21.833,67.713,21.982z"/><path fill="#000000" d="M69.048,34.139c-0.398,0.22-0.547,0.722-0.327,1.124l2.62,4.767c0.22,0.4,0.723,0.547,1.123,0.326    c0.093-0.051,0.172-0.117,0.236-0.194c0.212-0.254,0.26-0.622,0.091-0.93l-2.62-4.767C69.951,34.066,69.448,33.919,69.048,34.139z    "/><path fill="#000000" d="M62.53,32.345c-0.455,0.043-0.79,0.447-0.747,0.901c0.043,0.456,0.447,0.79,0.901,0.747l4.403-0.411    c0.226-0.021,0.422-0.131,0.557-0.293c0.137-0.163,0.211-0.379,0.19-0.608c-0.043-0.456-0.447-0.79-0.901-0.747L62.53,32.345z"/><path fill="#000000" d="M71.351,28.78l-0.029,4.424c-0.002,0.457,0.366,0.83,0.823,0.833c0.257,0.002,0.487-0.114,0.64-0.297    c0.119-0.142,0.192-0.325,0.193-0.525l0.029-4.424c0.002-0.457-0.366-0.83-0.823-0.833C71.726,27.955,71.354,28.323,71.351,28.78z    "/><path fill="#000000" d="M55.334,42.778c0.145-0.173,0.219-0.405,0.186-0.645l-0.578-4.143c-0.063-0.453-0.482-0.769-0.935-0.706    c-0.451,0.064-0.769,0.482-0.705,0.934l0.578,4.143c0.063,0.453,0.482,0.769,0.935,0.706    C55.026,43.036,55.208,42.929,55.334,42.778z"/><path fill="#000000" d="M62.142,35.534c-0.456-0.004-0.83,0.364-0.835,0.82l-0.04,4.422c-0.004,0.457,0.363,0.831,0.82,0.835    c0.258,0.002,0.489-0.114,0.642-0.297c0.119-0.142,0.191-0.324,0.193-0.523l0.04-4.422C62.966,35.912,62.598,35.538,62.142,35.534    z"/><path fill="#000000" d="M57.918,36.016c0.344,0.147,0.732,0.043,0.96-0.229c0.051-0.061,0.094-0.13,0.127-0.206    c0.18-0.42-0.015-0.906-0.435-1.086l-4.068-1.74c-0.421-0.18-0.908,0.014-1.087,0.436c-0.18,0.42,0.015,0.906,0.435,1.086    L57.918,36.016z"/><path fill="#000000" d="M62.141,48.45l-0.015,4.422c-0.002,0.457,0.368,0.829,0.825,0.831c0.256,0.001,0.485-0.115,0.637-0.297    c0.12-0.143,0.192-0.327,0.193-0.528l0.015-4.422c0.002-0.457-0.368-0.829-0.825-0.831C62.513,47.624,62.143,47.994,62.141,48.45z    "/><path fill="#000000" d="M61.591,43.969c-0.451-0.075-0.878,0.227-0.953,0.68c-0.075,0.451,0.229,0.877,0.679,0.953l4.341,0.727    c0.3,0.05,0.59-0.068,0.772-0.286c0.091-0.109,0.156-0.243,0.181-0.394c0.075-0.451-0.229-0.877-0.679-0.953L61.591,43.969z"/><path fill="#000000" d="M64.471,50.023c-0.07,0.452,0.241,0.874,0.693,0.943l3.325,0.508l1.243-1.485l-4.318-0.659    C64.961,49.26,64.54,49.569,64.471,50.023z"/><path fill="#000000" d="M77.793,27.632c0.255,0,0.484-0.115,0.636-0.297c0.12-0.143,0.193-0.328,0.193-0.53l0.003-2.063    c-0.467-0.809-1.018-1.577-1.652-2.296l-0.006,4.356C76.966,27.261,77.336,27.632,77.793,27.632z"/><path fill="#000000" d="M58.169,38.099c-0.454-0.045-0.859,0.289-0.903,0.744l-0.427,4.401c-0.045,0.455,0.289,0.859,0.744,0.904    c0.283,0.028,0.545-0.091,0.714-0.293c0.103-0.124,0.172-0.278,0.189-0.451l0.427-4.401    C58.958,38.548,58.624,38.144,58.169,38.099z"/><path fill="#000000" d="M77.215,32.557c-0.209,0.406-0.05,0.905,0.357,1.114l2.618,1.348c0.127-0.567,0.229-1.139,0.286-1.714    L78.33,32.2C77.923,31.99,77.421,32.149,77.215,32.557z"/><path fill="#000000" d="M63.561,29.316c0.021-0.021,0.041-0.042,0.059-0.064c0.268-0.321,0.257-0.798-0.04-1.105l-3.075-3.177    c-0.318-0.329-0.842-0.337-1.171-0.019c-0.334,0.318-0.337,0.842-0.019,1.17l3.075,3.177    C62.708,29.625,63.232,29.634,63.561,29.316z"/><path fill="#000000" d="M49.78,42.427c-0.222,0.399-0.079,0.903,0.32,1.126l4.829,2.693c0.353,0.197,0.787,0.108,1.037-0.191    c0.033-0.04,0.063-0.082,0.089-0.129c0.222-0.399,0.079-0.903-0.32-1.126l-4.829-2.693C50.507,41.884,50.007,42.027,49.78,42.427z    "/><path fill="#000000" d="M55.733,49.901c-0.001,0.307,0.163,0.604,0.457,0.748c0.167,0.082,0.347,0.098,0.516,0.066    c0.185-0.035,0.357-0.129,0.482-0.278c0.042-0.05,0.079-0.106,0.109-0.168l1.945-3.971c0.201-0.41,0.031-0.906-0.379-1.107    c-0.409-0.2-0.905-0.036-1.107,0.38l-1.945,3.971C55.754,49.658,55.734,49.78,55.733,49.901z"/><path fill="#000000" d="M60.503,50.844c-0.327-0.319-0.851-0.312-1.17,0.015l-1.104,1.132l-1.985,2.035    c-0.312,0.344-0.312,0.851,0.015,1.171c0.327,0.319,0.851,0.312,1.17-0.015l2.073-2.125l1.016-1.041    c0.015-0.016,0.029-0.032,0.043-0.048C60.835,51.638,60.815,51.148,60.503,50.844z"/><path fill="#000000" d="M64.882,21.207c0.242,0.387,0.753,0.505,1.141,0.263c0.076-0.048,0.141-0.106,0.196-0.171    c0.224-0.267,0.262-0.658,0.067-0.97l-1.629-2.605c-0.262,0.03-0.525,0.063-0.785,0.107c-0.326,0.056-0.648,0.131-0.97,0.209    l0.34,0.543L64.882,21.207z"/><path fill="#000000" d="M52.187,36.915c0.049-0.038,0.092-0.08,0.131-0.126c0.243-0.291,0.262-0.721,0.021-1.034l-1.66-2.163    l-1.032-1.344c-0.278-0.362-0.797-0.431-1.161-0.153c-0.359,0.277-0.431,0.797-0.152,1.161l1.256,1.637l1.435,1.87    C51.304,37.125,51.824,37.193,52.187,36.915z"/><path fill="#000000" d="M53.446,32.14c0.108-0.129,0.178-0.292,0.191-0.472l0.125-1.759l0.169-2.379    c0.032-0.456-0.311-0.852-0.767-0.884c-0.458-0.032-0.854,0.312-0.884,0.767l-0.294,4.138c-0.01,0.14,0.025,0.268,0.078,0.388    c0.12,0.271,0.373,0.474,0.689,0.497C53.029,32.455,53.281,32.337,53.446,32.14z"/><path fill="#000000" d="M47.511,40.841c0.352,0.196,0.787,0.107,1.036-0.191c0.033-0.04,0.064-0.082,0.09-0.129    c0.222-0.4,0.078-0.904-0.321-1.126l-1.702-0.946l-2.162-1.202c-0.399-0.222-0.907-0.08-1.126,0.32    c-0.222,0.4-0.078,0.904,0.321,1.126l1.885,1.048L47.511,40.841z"/><path fill="#000000" d="M56.612,27.929c0.354,0.207,0.797,0.122,1.051-0.183c0.03-0.035,0.057-0.073,0.081-0.114    c0.23-0.395,0.097-0.902-0.297-1.132l-0.559-0.327l-2.974-1.738l-1.077,1.287l2.974,1.738L56.612,27.929z"/><path fill="#000000" d="M32.683,51.774c0.155-0.185,0.228-0.435,0.178-0.69c-0.07-0.358-0.363-0.607-0.706-0.652l-1.633,1.951    l1.685-0.328C32.401,52.017,32.565,51.915,32.683,51.774z"/><path fill="#000000" d="M21.087,65.621c0.294,0.042,0.575-0.076,0.753-0.289c0.095-0.113,0.161-0.254,0.184-0.412l0.416-2.881    l-2.021,2.414l-0.033,0.23C20.321,65.136,20.635,65.556,21.087,65.621z"/><path fill="#000000" d="M19.151,67.311c0.076-0.091,0.133-0.199,0.166-0.321c0.081-0.307-0.03-0.614-0.25-0.815    c-0.309,0.449-0.59,0.911-0.842,1.383l0.081,0.021C18.626,67.665,18.952,67.549,19.151,67.311z"/><path fill="#000000" d="M39.562,44.42c0.07-0.083,0.124-0.181,0.158-0.292c0.132-0.437-0.116-0.899-0.554-1.031l-0.695-0.209    l-1.155,1.38l1.373,0.414C39.016,44.78,39.356,44.666,39.562,44.42z"/><path fill="#000000" d="M41.522,40.553c0.12-0.143,0.192-0.327,0.193-0.528l0.004-1.018l-1.367,1.634    c0.144,0.125,0.326,0.208,0.532,0.209C41.14,40.85,41.369,40.735,41.522,40.553z"/><path fill="#000000" d="M27.783,56.999c0.225-0.268,0.262-0.661,0.065-0.973c-0.054-0.085-0.124-0.151-0.199-0.209l-2.333,2.788    l2.275-1.437C27.665,57.121,27.729,57.063,27.783,56.999z"/><path fill="#000000" d="M36.597,49.981c0.109-0.053,0.201-0.127,0.274-0.214c0.202-0.242,0.257-0.589,0.111-0.891l-1.289-2.67    l-1.165,1.392l0.964,1.998C35.69,50.007,36.185,50.18,36.597,49.981z"/><path fill="#000000" d="M20.651,69.467l4.494,0.37c0.28,0.023,0.537-0.095,0.703-0.294c0.106-0.127,0.176-0.286,0.19-0.463    c0.037-0.455-0.301-0.855-0.756-0.892l-3.331-0.275l-2.033-0.168c-0.458-0.039-0.858,0.301-0.893,0.757    c-0.037,0.455,0.301,0.855,0.756,0.892L20.651,69.467z"/><path fill="#000000" d="M31.216,56.845l2.203,0.417c0.305,0.058,0.602-0.06,0.789-0.283c0.088-0.105,0.151-0.232,0.178-0.377    c0.085-0.449-0.21-0.882-0.66-0.967l-1.293-0.245l-2.555-0.483c-0.449-0.085-0.883,0.211-0.967,0.66    c-0.085,0.449,0.21,0.882,0.66,0.967L31.216,56.845z"/><path fill="#000000" d="M40.864,84.331c-0.003,0.014,0.002,0.027,0,0.041c0.219-0.218,0.428-0.451,0.636-0.686    C41.188,83.755,40.931,83.999,40.864,84.331z"/><path fill="#000000" d="M53.108,69.848l0.745-0.891c-0.186,0.016-0.37,0.083-0.514,0.225    C53.155,69.368,53.086,69.612,53.108,69.848z"/><path fill="#000000" d="M49.654,66.602c-0.44,0.126-0.693,0.584-0.566,1.024l1.223,4.249c0.087,0.303,0.336,0.507,0.624,0.569    l0.939-1.122l-1.196-4.154C50.551,66.729,50.093,66.476,49.654,66.602z"/><path fill="#000000" d="M27.265,83.112l0.75,4.358c0.077,0.451,0.505,0.753,0.956,0.676c0.201-0.035,0.372-0.14,0.494-0.284    c0.151-0.18,0.224-0.422,0.181-0.672l-0.75-4.358c-0.077-0.451-0.505-0.753-0.956-0.676C27.49,82.235,27.187,82.662,27.265,83.112    z"/><path fill="#000000" d="M46.275,72.804c-0.303,0.337-0.315,0.851,0.01,1.171l1.847,1.818l1.066-1.273l-1.752-1.724    C47.12,72.475,46.597,72.479,46.275,72.804z"/><path fill="#000000" d="M40.021,84.458l-2.384-4.583c-0.211-0.405-0.711-0.564-1.116-0.352c-0.406,0.21-0.564,0.71-0.353,1.116    l2.384,4.583c0.16,0.306,0.484,0.47,0.808,0.441c0.241-0.18,0.475-0.37,0.706-0.567C40.132,84.891,40.128,84.663,40.021,84.458z"/><path fill="#000000" d="M33.924,87.838c-0.02,0.108-0.015,0.214,0.006,0.315c0.797-0.177,1.58-0.416,2.34-0.729l-1.384-0.252    C34.437,87.091,34.006,87.387,33.924,87.838z"/><path fill="#000000" d="M31.845,87.709c-0.326,0.131-0.519,0.446-0.515,0.777c0.555-0.02,1.107-0.071,1.656-0.155l-0.064-0.161    C32.751,87.746,32.269,87.54,31.845,87.709z"/><path fill="#000000" d="M46.257,56.54l-4.253-3.217c-0.365-0.277-0.894-0.216-1.159,0.161c-0.276,0.364-0.204,0.883,0.161,1.159    l4.253,3.217c0.354,0.268,0.852,0.208,1.134-0.128c0.009-0.01,0.018-0.021,0.026-0.032C46.694,57.335,46.622,56.816,46.257,56.54z    "/><path fill="#000000" d="M29.532,65.261l4.345-0.819c0.196-0.037,0.362-0.14,0.481-0.282c0.153-0.183,0.227-0.431,0.179-0.685    c-0.085-0.449-0.518-0.745-0.966-0.66l-4.345,0.819c-0.448,0.085-0.744,0.517-0.66,0.966    C28.651,65.05,29.083,65.346,29.532,65.261z"/><path fill="#000000" d="M27.57,69.089c-0.455-0.041-0.859,0.296-0.897,0.751l-0.478,5.384c-0.041,0.455,0.296,0.857,0.751,0.897    c0.281,0.025,0.54-0.093,0.708-0.293c0.105-0.125,0.174-0.282,0.189-0.457l0.478-5.384C28.362,69.531,28.026,69.129,27.57,69.089z    "/><path fill="#000000" d="M22.176,76.526c0.167-0.047,0.308-0.142,0.412-0.266c0.169-0.201,0.239-0.481,0.163-0.752    c-0.122-0.441-0.578-0.699-1.019-0.577l-4.527,1.257c-0.194,0.055-0.344,0.181-0.451,0.335c0.063,0.39,0.144,0.776,0.239,1.161    c0.19,0.118,0.423,0.163,0.655,0.099L22.176,76.526z"/><path fill="#000000" d="M38.213,74.438c-0.449-0.077-0.877,0.224-0.956,0.676c-0.077,0.451,0.225,0.878,0.676,0.956l4.359,0.748    c0.301,0.051,0.592-0.066,0.775-0.285c0.09-0.108,0.155-0.241,0.181-0.39c0.077-0.451-0.225-0.878-0.676-0.956L38.213,74.438z"/><path fill="#000000" d="M33,69.177l2.32,2.677c0.299,0.345,0.822,0.382,1.167,0.083c0.034-0.03,0.065-0.062,0.093-0.095    c0.256-0.306,0.26-0.761-0.01-1.073l-2.32-2.677c-0.299-0.345-0.822-0.382-1.167-0.083C32.736,68.308,32.701,68.832,33,69.177z"/><path fill="#000000" d="M34.727,66.071c0.203,0.409,0.7,0.575,1.11,0.372l3.96-1.971c0.105-0.053,0.194-0.125,0.265-0.21    c0.205-0.244,0.258-0.596,0.107-0.9c-0.203-0.409-0.7-0.575-1.11-0.372l-3.96,1.971C34.691,65.166,34.523,65.662,34.727,66.071z"/><path fill="#000000" d="M29.468,67.674c-0.433,0.149-0.662,0.619-0.514,1.052l1.437,4.183c0.148,0.432,0.62,0.662,1.051,0.513    c0.148-0.051,0.272-0.139,0.365-0.251c0.18-0.215,0.246-0.516,0.149-0.801l-1.437-4.183C30.371,67.756,29.9,67.526,29.468,67.674z    "/><path fill="#000000" d="M55.241,61.298c-0.458,0.012-0.819,0.391-0.805,0.849l0.14,5.292c0.004,0.174,0.074,0.324,0.169,0.454    l1.453-1.735l-0.107-4.054C56.078,61.647,55.698,61.286,55.241,61.298z"/><path fill="#000000" d="M30.803,79.831c-0.398,0.22-0.547,0.722-0.327,1.124l2.62,4.768c0.22,0.4,0.723,0.547,1.123,0.326    c0.093-0.051,0.172-0.117,0.236-0.194c0.212-0.254,0.26-0.622,0.091-0.93l-2.62-4.767C31.706,79.758,31.203,79.611,30.803,79.831z    "/><path fill="#000000" d="M24.285,78.037c-0.455,0.043-0.79,0.447-0.747,0.901c0.043,0.456,0.447,0.79,0.901,0.747l4.403-0.411    c0.226-0.021,0.422-0.131,0.557-0.293c0.137-0.163,0.211-0.379,0.19-0.608c-0.043-0.456-0.447-0.79-0.901-0.747L24.285,78.037z"/><path fill="#000000" d="M37.478,56.308l1.615,4.35c0.159,0.428,0.635,0.647,1.064,0.488c0.14-0.052,0.256-0.138,0.346-0.244    c0.185-0.221,0.249-0.531,0.142-0.82l-1.615-4.35c-0.159-0.428-0.635-0.647-1.064-0.488    C37.538,55.402,37.319,55.879,37.478,56.308z"/><path fill="#000000" d="M47.365,60.591c-0.286,0.356-0.229,0.878,0.128,1.163l3.449,2.768c0.351,0.282,0.864,0.23,1.152-0.114    c0.004-0.005,0.007-0.009,0.011-0.014c0.286-0.356,0.229-0.878-0.128-1.163l-3.449-2.768    C48.172,60.177,47.649,60.213,47.365,60.591z"/><path fill="#000000" d="M45.68,58.586l-3.002,3.247c-0.335,0.342-0.291,0.859,0.046,1.17c0.335,0.31,0.859,0.29,1.169-0.046    l3.002-3.247c0.01-0.01,0.019-0.021,0.027-0.031c0.281-0.336,0.253-0.837-0.073-1.138C46.514,58.23,45.99,58.25,45.68,58.586z"/><path fill="#000000" d="M33.106,74.472l-0.029,4.424c-0.002,0.457,0.366,0.83,0.823,0.833c0.257,0.002,0.487-0.114,0.64-0.297    c0.119-0.142,0.192-0.325,0.193-0.525l0.029-4.424c0.002-0.457-0.366-0.83-0.823-0.833C33.482,73.647,33.109,74.015,33.106,74.472    z"/><path fill="#000000" d="M60.673,57.985l-3.088,3.167c-0.307,0.331-0.312,0.851,0.015,1.171c0.327,0.319,0.852,0.312,1.171-0.015    l3.088-3.167c0.014-0.016,0.029-0.031,0.042-0.048c0.275-0.328,0.254-0.819-0.057-1.123    C61.516,57.651,60.991,57.658,60.673,57.985z"/><path fill="#000000" d="M24.677,86.483l0.04-4.422c0.004-0.457-0.363-0.831-0.82-0.835c-0.456-0.004-0.829,0.363-0.835,0.82    l-0.038,4.143c0.471,0.308,0.956,0.579,1.451,0.825c0.003-0.003,0.007-0.004,0.009-0.007    C24.602,86.865,24.674,86.683,24.677,86.483z"/><path fill="#000000" d="M20.633,81.479c0.051-0.061,0.094-0.13,0.127-0.206c0.18-0.42-0.015-0.906-0.435-1.086l-2.965-1.268    c0.263,0.763,0.589,1.505,0.983,2.221l1.33,0.569C20.017,81.856,20.405,81.752,20.633,81.479z"/><path fill="#000000" d="M44.504,53.116c0.295,0.043,0.576-0.075,0.754-0.288c0.095-0.113,0.161-0.254,0.184-0.412l0.633-4.378    c0.065-0.453-0.248-0.872-0.7-0.937c-0.453-0.065-0.873,0.246-0.938,0.7l-0.633,4.378C43.738,52.631,44.051,53.05,44.504,53.116z"/><path fill="#000000" d="M47.041,52.224c-0.389,0.235-0.523,0.74-0.289,1.134l2.256,3.804c0.233,0.393,0.74,0.523,1.134,0.29    c0.082-0.05,0.153-0.111,0.212-0.181c0.219-0.262,0.261-0.643,0.077-0.953l-2.256-3.804C47.941,52.12,47.434,51.991,47.041,52.224    z"/><path fill="#000000" d="M39.557,66.363c-0.458-0.001-0.829,0.37-0.829,0.827l-0.007,5.306c-0.001,0.457,0.37,0.828,0.827,0.829    c0.255,0,0.484-0.115,0.636-0.297c0.12-0.143,0.193-0.328,0.193-0.53l0.007-5.306C40.384,66.735,40.014,66.363,39.557,66.363z"/><path fill="#000000" d="M41.977,64.733c-0.449-0.077-0.876,0.225-0.956,0.676c-0.077,0.451,0.225,0.878,0.676,0.956l4.359,0.748    c0.301,0.051,0.592-0.066,0.775-0.285c0.09-0.108,0.155-0.241,0.181-0.39c0.077-0.451-0.225-0.878-0.676-0.956L41.977,64.733z"/><path fill="#000000" d="M46.265,69.107l-4.06,1.753c-0.418,0.183-0.613,0.669-0.431,1.088c0.181,0.42,0.668,0.613,1.088,0.432    l4.06-1.753c0.123-0.054,0.226-0.133,0.306-0.229c0.194-0.232,0.254-0.563,0.125-0.86C47.172,69.119,46.685,68.926,46.265,69.107z    "/><path fill="#000000" d="M37.296,62.914c0.018-0.019,0.036-0.038,0.052-0.058c0.271-0.324,0.256-0.807-0.047-1.113l-3.199-3.228    c-0.321-0.324-0.846-0.327-1.171-0.006c-0.316,0.332-0.327,0.845-0.005,1.17l3.199,3.228    C36.446,63.233,36.971,63.236,37.296,62.914z"/><path fill="#000000" d="M46.685,75.458c-0.453,0.056-0.775,0.471-0.718,0.924l0.219,1.736l1.45-1.733l-0.026-0.209    C47.552,75.722,47.138,75.401,46.685,75.458z"/><path fill="#000000" d="M61.083,55.016c-0.449-0.077-0.878,0.226-0.956,0.676c-0.077,0.451,0.225,0.878,0.676,0.956l2.933,0.503    l0.271-0.324l0.958-1.144l-2.924-0.502L61.083,55.016z"/><path fill="#000000" d="M55.987,57.539c0.327,0.099,0.667-0.015,0.874-0.261c0.07-0.083,0.124-0.181,0.157-0.292    c0.132-0.438-0.116-0.899-0.553-1.031l-4.235-1.276c-0.438-0.132-0.899,0.116-1.031,0.553c-0.132,0.438,0.116,0.899,0.553,1.031    L55.987,57.539z"/><path fill="#000000" d="M53.567,51.476c0.084-0.1,0.145-0.221,0.174-0.358c0.096-0.447-0.188-0.886-0.635-0.982l-4.325-0.927    c-0.449-0.096-0.889,0.188-0.983,0.636c-0.096,0.447,0.188,0.886,0.635,0.982l4.325,0.927    C53.07,51.821,53.377,51.704,53.567,51.476z"/><path fill="#000000" d="M38.97,78.249c-0.209,0.406-0.05,0.905,0.357,1.114l4.064,2.093l1.089-1.301l-4.396-2.264    C39.678,77.682,39.176,77.841,38.97,78.249z"/><path fill="#000000" d="M56.847,59.795c0.187-0.223,0.25-0.538,0.138-0.829c-0.164-0.427-0.644-0.639-1.07-0.474l-4.128,1.593    c-0.423,0.165-0.638,0.643-0.474,1.07c0.164,0.427,0.644,0.639,1.07,0.474l4.128-1.593C56.646,59.983,56.76,59.899,56.847,59.795z    "/><path fill="#000000" d="M25.316,75.008c0.021-0.021,0.041-0.042,0.059-0.064c0.268-0.321,0.257-0.798-0.04-1.105l-3.075-3.177    c-0.318-0.329-0.842-0.337-1.171-0.019c-0.335,0.32-0.337,0.842-0.019,1.17l3.075,3.177    C24.463,75.318,24.987,75.326,25.316,75.008z"/><path fill="#000000" d="M49.543,47.557c0.226,0.397,0.731,0.536,1.128,0.311c0.088-0.051,0.164-0.115,0.225-0.189    c0.215-0.257,0.261-0.631,0.085-0.94l-0.884-1.555l-1.302-2.291c-0.226-0.397-0.731-0.536-1.128-0.311    c-0.135,0.077-0.227,0.192-0.298,0.318c-0.139,0.245-0.161,0.549-0.012,0.811L49.543,47.557z"/><path fill="#000000" d="M37.914,53.442c0.146-0.051,0.268-0.139,0.36-0.25c0.181-0.217,0.248-0.519,0.147-0.805    c-0.15-0.431-0.622-0.659-1.054-0.508l-2.819,0.986l-1.355,0.474c-0.433,0.152-0.66,0.623-0.507,1.055    c0.054,0.155,0.158,0.271,0.277,0.365c0.215,0.169,0.5,0.24,0.777,0.143L37.914,53.442z"/><path fill="#000000" d="M27.777,67.162c0.076-0.048,0.141-0.106,0.196-0.171c0.224-0.267,0.262-0.658,0.067-0.97l-1.927-3.08    l-1.241-1.985c-0.242-0.387-0.753-0.505-1.141-0.263c-0.387,0.246-0.505,0.753-0.263,1.141l1.528,2.442l1.641,2.623    C26.879,67.286,27.39,67.404,27.777,67.162z"/><path fill="#000000" d="M40.712,50.778c0.118-0.141,0.19-0.323,0.192-0.523l0.045-4.421c0.002-0.168-0.059-0.315-0.143-0.447    c-0.146-0.226-0.386-0.386-0.675-0.389c-0.457-0.005-0.832,0.361-0.836,0.819l-0.014,1.391l-0.03,3.03    c-0.005,0.457,0.362,0.831,0.819,0.835C40.327,51.078,40.559,50.962,40.712,50.778z"/><path fill="#000000" d="M44.833,46.191c0.148-0.051,0.272-0.139,0.365-0.251c0.18-0.215,0.246-0.516,0.149-0.801l-1.26-3.671    l-0.175-0.51c-0.148-0.432-0.619-0.662-1.051-0.513c-0.433,0.148-0.663,0.619-0.514,1.052l0.499,1.455l0.936,2.727    C43.93,46.109,44.4,46.339,44.833,46.191z"/><path fill="#000000" d="M30.996,62.116c0.351,0.289,0.869,0.24,1.16-0.108c0.001-0.002,0.003-0.003,0.005-0.005    c0.29-0.353,0.24-0.874-0.113-1.165l-2.471-2.034l-0.144-0.118c-0.351-0.289-0.869-0.24-1.16,0.108    c-0.001,0.002-0.003,0.003-0.005,0.005c-0.29,0.353-0.24,0.874,0.113,1.165l0.133,0.109L30.996,62.116z"/><path fill="#000000" d="M18.367,73.621c0.354,0.207,0.797,0.121,1.051-0.183c0.03-0.035,0.057-0.073,0.081-0.114    c0.23-0.395,0.097-0.902-0.297-1.132l-0.559-0.327l-1.669-0.976c-0.138,0.573-0.249,1.15-0.316,1.732l0.907,0.53L18.367,73.621z"/><path d="M52.972,20.727L17.501,63.106c-6.147,7.344-5.173,18.319,2.171,24.466c7.344,6.147,18.319,5.173,24.466-2.171    l35.471-42.378c6.147-7.344,5.173-18.319-2.171-24.466C70.094,12.41,59.118,13.384,52.972,20.727z M78.625,24.743    c0.841,1.459,1.417,3.037,1.702,4.666c0.099,0.566,0.155,1.137,0.186,1.711c0.039,0.728,0.035,1.458-0.037,2.185    c-0.057,0.575-0.159,1.147-0.286,1.714c-0.482,2.146-1.455,4.212-2.962,6.012l-0.868,1.037l-1.222,1.46l-5.408,6.461l-1.243,1.485    l-3.523,4.209l-0.958,1.144l-0.271,0.324l-7.539,9.007l-1.453,1.735l-0.891,1.064l-0.745,0.891l-1.234,1.474l-0.939,1.122    l-1.737,2.075l-1.066,1.273l-0.496,0.593l-1.45,1.733l-1.705,2.037l-1.089,1.301l-1.634,1.953    c-0.082,0.098-0.174,0.183-0.258,0.278c-0.207,0.235-0.416,0.468-0.636,0.686c-0.257,0.255-0.527,0.491-0.799,0.723    c-0.231,0.197-0.465,0.387-0.706,0.567c-0.965,0.722-2.001,1.313-3.089,1.761c-0.76,0.313-1.543,0.552-2.34,0.729    c-0.313,0.07-0.628,0.13-0.944,0.178c-0.549,0.084-1.101,0.135-1.656,0.155c-2.337,0.085-4.694-0.398-6.855-1.472    c-0.495-0.246-0.98-0.517-1.451-0.825c-0.466-0.305-0.923-0.631-1.361-0.997c-1.393-1.166-2.493-2.549-3.321-4.052    c-0.394-0.715-0.72-1.458-0.983-2.221c-0.14-0.407-0.263-0.818-0.365-1.235c-0.095-0.384-0.177-0.77-0.239-1.161    c-0.207-1.288-0.244-2.6-0.096-3.901c0.066-0.582,0.177-1.159,0.316-1.732c0.276-1.144,0.684-2.265,1.251-3.331    c0.251-0.473,0.533-0.934,0.842-1.383c0.253-0.368,0.521-0.729,0.814-1.079l0.539-0.644l2.021-2.414l2.875-3.435l2.333-2.788    l2.874-3.434l1.633-1.951l2.372-2.834l1.165-1.392l1.622-1.938l1.155-1.38l1.881-2.247l1.367-1.634l4.004-4.783l1.663-1.987    l2.046-2.445l1.026-1.226l2.38-2.844l1.077-1.287l1.437-1.716c0.272-0.325,0.56-0.627,0.854-0.922    c0.404-0.405,0.825-0.786,1.265-1.133c0.454-0.357,0.93-0.674,1.416-0.969c0.462-0.28,0.937-0.529,1.423-0.753    c0.837-0.385,1.704-0.687,2.591-0.903c0.322-0.078,0.644-0.153,0.97-0.209c0.261-0.045,0.523-0.077,0.785-0.107    c1.223-0.141,2.46-0.122,3.684,0.054c1.228,0.176,2.439,0.505,3.601,1.006c0.422,0.182,0.837,0.384,1.244,0.609    c0.541,0.299,1.062,0.647,1.571,1.023c0.231,0.171,0.467,0.334,0.69,0.521c0.559,0.468,1.058,0.98,1.527,1.51    C77.607,23.165,78.158,23.934,78.625,24.743z"/></g></g></svg>