<svg xmlns="http://www.w3.org/2000/svg" xmlns:xlink="http://www.w3.org/1999/xlink" version="1.1" id="Your_Icon" x="0px" y="0px" width="100px" height="100px" viewBox="0 0 100 100" enable-background="new 0 0 100 100" xml:space="preserve">
<g>
	<g>
		<g>
			<g>
				<path d="M52.928,67.176c0,0.369-0.087,0.727-0.259,1.034c-0.259,0.554-0.752,0.975-1.342,1.146c-0.013,0.012-0.013,0-0.013,0      c-0.223,0.087-0.456,0.123-0.69,0.123c-0.136,0-0.271-0.013-0.407-0.036c-0.074-0.013-0.148-0.024-0.222-0.062      c-0.616-0.159-1.12-0.578-1.392-1.134h-0.012c-0.173-0.319-0.271-0.676-0.271-1.07c0-0.469,0.135-0.899,0.382-1.257      c0.407-0.628,1.121-1.034,1.922-1.034C51.894,64.885,52.928,65.907,52.928,67.176z"/>
			</g>
		</g>
	</g>
</g>
<path d="M76.551,0H24.697c-1.021,0-1.847,0.826-1.847,1.848v69.983c0,0.382,0.111,0.727,0.308,1.022  c0.333,0.493,0.9,0.824,1.54,0.824h0.013l-0.024-0.528c-0.012-0.174,0.012-0.345,0.061-0.493c0.062-0.159,0.148-0.296,0.259-0.431  c0.024-0.036,0.062-0.061,0.099-0.087c0.086-0.087,0.185-0.159,0.296-0.209c0.148-0.072,0.308-0.111,0.48-0.123  c0.172,0,0.333,0.012,0.48,0.074c0.161,0.049,0.308,0.135,0.431,0.258c0.123,0.11,0.222,0.235,0.296,0.395  c0.073,0.135,0.11,0.296,0.123,0.481l0.049,0.663h1.54h2.599h1.527v-1.539v-1.54v-6.81l0.012-1.54V60.71v-4.509  c0-0.443,0.172-0.874,0.493-1.182c0.394-0.407,0.985-0.555,1.527-0.444c0.308,0.062,0.604,0.21,0.838,0.444  c0.32,0.319,0.493,0.738,0.493,1.182v1.824v2.685v1.539v1.54v6.81v1.54v1.539h3.079v-1.539v-1.54v-6.81v-0.247  c0.197-0.111,0.407-0.172,0.628-0.185c0.48-0.05,0.948,0.123,1.281,0.432c0.283,0.233,0.468,0.565,0.529,0.947  c0,0.013,0.013,0.013,0.013,0.013s0,0.012,0,0.024c0.012,0.074,0.012,0.16,0.012,0.247v5.578v1.54v1.539h3.079v-1.539v-1.54v-2.795  c0.123-0.049,0.247-0.074,0.37-0.087c0.85-0.099,1.687,0.518,1.835,1.405c0.013,0.087,0.025,0.173,0.025,0.271v0.59v0.615v1.54  v1.539h3.079v-1.539v-1.231c0.086-0.024,0.185-0.049,0.271-0.061c0.062,0,0.111-0.012,0.172-0.012c0.802,0,1.466,0.565,1.639,1.304  c0.037,0.125,0.049,0.248,0.049,0.37v1.169h24.202c1.022,0,1.848-0.824,1.848-1.847V1.848C78.398,0.826,77.573,0,76.551,0z   M65.982,52.986H38.11c-0.037-0.049-0.086-0.099-0.135-0.147c-1.589-1.588-4.225-1.773-6.06-0.542V8.487h37.417V60.71h-27.17  c-0.739-0.346-1.589-0.506-2.463-0.419c-0.111,0.012-0.222,0.024-0.333,0.048v-2.313h26.616c0.173,0,0.309-0.138,0.309-0.309v-4.423  C66.291,53.122,66.155,52.986,65.982,52.986z M52.669,68.21c0.172-0.308,0.259-0.665,0.259-1.034c0-1.269-1.034-2.291-2.303-2.291  c-0.801,0-1.515,0.406-1.922,1.034c-0.85-0.812-1.995-1.293-3.239-1.293c-0.185,0-0.357,0.012-0.518,0.036  c-0.013,0-0.037,0-0.049,0.013c0-0.123-0.012-0.258-0.037-0.381c0-0.025-0.012-0.051-0.012-0.074  c-0.024-0.148-0.062-0.296-0.086-0.431h25.964c0.936,0,1.687-0.752,1.687-1.688V7.095c0-0.936-0.751-1.688-1.687-1.688H30.524  c-0.937,0-1.688,0.751-1.688,1.688v55.007c0,0.701,0.418,1.293,1.022,1.552v6.945h-0.333c-0.197-0.281-0.419-0.528-0.678-0.762  c-0.431-0.383-0.924-0.679-1.465-0.864c-0.456-0.158-0.949-0.245-1.454-0.245V3.08h49.39v67.519H55.01  C54.554,69.541,53.716,68.691,52.669,68.21z"/>
<path d="M55.403,72.139c-0.036-0.541-0.172-1.059-0.394-1.54c-0.456-1.058-1.294-1.907-2.341-2.389  c-0.604-0.296-1.281-0.455-2.008-0.455c-0.172,0-0.345,0.012-0.505,0.037c-0.074,0.012-0.148,0.012-0.21,0.036  c-0.246-0.751-0.677-1.416-1.244-1.909c-0.85-0.812-1.995-1.293-3.239-1.293c-0.185,0-0.357,0.012-0.518,0.036  c-0.013,0-0.037,0-0.049,0.013c0-0.123-0.012-0.258-0.037-0.381c0-0.025-0.012-0.051-0.012-0.074  c-0.024-0.148-0.062-0.296-0.086-0.431c-0.16-0.568-0.406-1.085-0.738-1.54c-0.481-0.666-1.121-1.195-1.86-1.539  c-0.739-0.346-1.589-0.506-2.463-0.419c-0.111,0.012-0.222,0.024-0.333,0.048v-4.138c0-1.195-0.443-2.34-1.256-3.215  c-0.037-0.049-0.086-0.099-0.135-0.147c-1.589-1.588-4.225-1.773-6.06-0.542c-0.234,0.147-0.456,0.332-0.666,0.542  c-0.357,0.356-0.653,0.764-0.874,1.195c-0.333,0.664-0.518,1.403-0.518,2.167v14.966c-0.099-0.197-0.209-0.383-0.333-0.568  c-0.197-0.281-0.419-0.528-0.678-0.762c-0.431-0.383-0.924-0.679-1.465-0.864c-0.456-0.158-0.949-0.245-1.454-0.245  c-0.074,0-0.147,0.012-0.222,0.012c-0.456,0.024-0.899,0.123-1.318,0.284c-0.111,0.036-0.209,0.087-0.32,0.135  c-0.456,0.222-0.874,0.518-1.219,0.888c-0.049,0.036-0.098,0.087-0.136,0.135c-0.394,0.431-0.677,0.911-0.874,1.453  c-0.185,0.543-0.259,1.108-0.234,1.677l0.148,2.696v0.135l0.394,6.17c0.173,8.068,2.944,13.426,8.215,15.939  C33.64,99.815,37.261,100,40.205,100c0.468,0,0.911,0,1.342-0.012h1.072c3.412,0,6.614-1.33,9.028-3.745  c2.414-2.413,3.744-5.617,3.744-9.028l0.038-13.537v-1.156C55.429,72.387,55.429,72.264,55.403,72.139z M42.619,96.909H41.51  c-2.809,0.036-6.664,0.072-9.817-1.441c-4.2-1.996-6.318-6.319-6.466-13.291l-0.394-6.096v-0.122l-0.124-2.281l-0.024-0.528  c-0.012-0.174,0.012-0.345,0.061-0.493c0.062-0.159,0.148-0.296,0.259-0.431c0.024-0.036,0.062-0.061,0.099-0.087  c0.086-0.087,0.185-0.159,0.296-0.209c0.148-0.072,0.308-0.111,0.48-0.123c0.172,0,0.333,0.012,0.48,0.074  c0.161,0.049,0.308,0.135,0.431,0.258c0.123,0.11,0.222,0.235,0.296,0.395c0.073,0.135,0.11,0.296,0.123,0.481l0.049,0.663  l0.456,6.518c0,0.418,0.086,1.772,1.059,2.648c0.948,0.861,2.303,0.936,2.562,0.947c0.431,0.013,0.813-0.148,1.108-0.431  c0.295-0.296,0.468-0.69,0.468-1.097l0.012-8.586v-9.889l0.012-1.54v-6.048c0-0.443,0.172-0.874,0.493-1.182  c0.394-0.407,0.985-0.555,1.527-0.444c0.308,0.062,0.604,0.21,0.838,0.444c0.32,0.319,0.493,0.738,0.493,1.182v6.602v13.069  c0,0.85,0.69,1.54,1.54,1.54c0.628,0,1.158-0.371,1.404-0.9c0-0.012,0-0.012,0-0.012c0.086-0.197,0.135-0.406,0.135-0.628v-12.33  c0.197-0.111,0.407-0.172,0.628-0.185c0.48-0.05,0.948,0.123,1.281,0.432c0.283,0.233,0.468,0.565,0.529,0.947  c0,0.013,0.013,0.013,0.013,0.013s0,0.012,0,0.024c0.012,0.074,0.012,0.16,0.012,0.247v1.909v10.728v0.036v0.654  c0,0.849,0.69,1.539,1.54,1.539c0.111,0,0.209-0.012,0.308-0.038c0.11-0.012,0.209-0.048,0.296-0.084  c0.074-0.039,0.16-0.075,0.221-0.125c0.049-0.024,0.099-0.061,0.148-0.111c0.061-0.036,0.123-0.099,0.172-0.158  c0.086-0.099,0.16-0.197,0.222-0.32c0-0.012,0.012-0.012,0.012-0.026c0.012-0.012,0.012-0.012,0.012-0.024v-0.012  c0.049-0.099,0.086-0.197,0.111-0.296c0.024-0.11,0.037-0.233,0.037-0.344V67.804c0.123-0.049,0.247-0.074,0.37-0.087  c0.85-0.099,1.687,0.518,1.835,1.405c0.013,0.087,0.025,0.173,0.025,0.271v0.59v10.125v0.012v0.703c0,0.849,0.69,1.539,1.54,1.539  s1.54-0.69,1.54-1.539v-9.916c0.086-0.024,0.185-0.049,0.271-0.061c0.062,0,0.111-0.012,0.172-0.012  c0.802,0,1.466,0.565,1.639,1.304c0.037,0.125,0.049,0.248,0.049,0.37v1.169l-0.037,13.537c0,2.586-1.01,5.013-2.845,6.849  C47.631,95.898,45.205,96.909,42.619,96.909z"/>
</svg>
