<svg xmlns="http://www.w3.org/2000/svg" xmlns:xlink="http://www.w3.org/1999/xlink" version="1.1" x="0px" y="0px" viewBox="0 0 100 100" enable-background="new 0 0 100 100" xml:space="preserve"><path d="M21.202,26.55c4.306-2.3,7.726-2.722,7.869-2.738l0.054,0.458l0.054,0.458c-0.034,0.004-3.42,0.426-7.579,2.655  c-3.828,2.052-9.117,6.102-12.574,13.748l-0.841-0.38c1.577-3.486,3.653-6.546,6.173-9.094  C16.374,29.616,18.677,27.898,21.202,26.55z M91.016,41.131l0.84-0.38c-1.576-3.486-3.652-6.546-6.172-9.094  c-2.018-2.041-4.32-3.759-6.844-5.107c-4.307-2.3-7.727-2.722-7.869-2.738l-0.109,0.917c0.033,0.004,3.422,0.426,7.58,2.655  C82.268,29.436,87.557,33.485,91.016,41.131z M17.783,24.975c4.158-2.229,7.545-2.651,7.579-2.655l-0.054-0.458l-0.053-0.458  c-0.144,0.017-3.563,0.438-7.869,2.738c-2.526,1.349-4.828,3.067-6.846,5.107c-2.52,2.549-4.596,5.608-6.172,9.094l0.841,0.38  C8.666,31.077,13.955,27.027,17.783,24.975z M89.5,29.249c-2.016-2.041-4.318-3.759-6.842-5.107  c-4.307-2.299-7.729-2.721-7.871-2.738L74.68,22.32c0.033,0.004,3.422,0.426,7.578,2.655c3.828,2.052,9.117,6.102,12.576,13.748  l0.84-0.38C94.098,34.857,92.021,31.798,89.5,29.249z M80.703,39.173C76.596,34.595,71.813,31,66.486,28.489  c-5.521-2.602-11.385-3.922-17.431-3.922c-6.044,0-11.908,1.32-17.427,3.922C26.301,31,21.517,34.595,17.41,39.173  c-4.104,4.574-7.325,9.9-9.575,15.829c-2.328,6.137-3.509,12.654-3.509,19.371H5.25c0-26.954,19.652-48.883,43.806-48.883  c24.157,0,43.81,21.929,43.81,48.883h0.92c0-6.717-1.18-13.234-3.506-19.371C88.029,49.074,84.807,43.748,80.703,39.173z   M67.799,37.224L55.338,41.08l-1.543-0.157c-4.479-0.388-7.822-0.108-9.536,0.115l-12.058-3.814c0,0-1.636-0.154-1.826,1.47  c-0.187,1.628,0.744,2.145,0.744,2.145s8.531,3.237,13.14,4.375v1.724h0.005V58.66h0.019v14.049c0,0,0.453,1.762,2.654,1.66  c2.201-0.1,2.375-1.383,2.375-1.383V58.66h0.997v14.049c0,0,0.453,1.762,2.654,1.66c2.201-0.1,2.375-1.383,2.375-1.383V58.66v-13.35  c4.494-1.039,13.545-4.472,13.545-4.472s0.93-0.517,0.742-2.145C69.434,37.069,67.799,37.224,67.799,37.224z M54.061,35.867  c0-2.354-1.908-4.263-4.263-4.263c-2.353,0-4.261,1.908-4.261,4.263c0,2.354,1.909,4.263,4.261,4.263  C52.152,40.129,54.061,38.221,54.061,35.867z"></path></svg>