<svg xmlns="http://www.w3.org/2000/svg" xmlns:xlink="http://www.w3.org/1999/xlink" version="1.1" x="0px" y="0px" viewBox="0 0 60 53.01" enable-background="new 0 0 60 53.01" xml:space="preserve"><g><path d="M59.79,23.07c-0.61-2.58-2.46-4.45-4.39-4.45c-0.23,0-0.47,0.03-0.7,0.08c-0.19,0.04-0.37,0.11-0.54,0.19   c-2.33-5.72-5.97-9.41-9.71-11.78l1.33-2.67c0.25-0.49,0.05-1.09-0.45-1.34c-0.49-0.25-1.09-0.05-1.34,0.45l-1.28,2.56   c-0.62-0.33-1.24-0.63-1.84-0.89l0.97-2.9c0.17-0.52-0.11-1.09-0.63-1.26c-0.53-0.18-1.09,0.11-1.26,0.63l-0.93,2.8   C38.32,4.24,37.65,4.03,37,3.85l0.84-2.53c0.17-0.52-0.11-1.09-0.63-1.26c-0.53-0.18-1.09,0.11-1.26,0.63l-0.9,2.7   c-1.27-0.26-2.34-0.4-3.15-0.47V1c0-0.55-0.45-1-1-1s-1,0.45-1,1v1.84c-0.53,0.02-1.44,0.08-2.64,0.26l-0.38-2.27   c-0.09-0.54-0.61-0.92-1.15-0.82c-0.54,0.09-0.91,0.61-0.82,1.15l0.38,2.31c-1.08,0.24-2.26,0.56-3.52,1l-0.93-2.79   c-0.17-0.52-0.74-0.81-1.26-0.63c-0.52,0.17-0.81,0.74-0.63,1.26l0.96,2.89c-0.87,0.38-1.75,0.82-2.63,1.33l-1.49-2.98   c-0.25-0.49-0.85-0.69-1.34-0.45c-0.49,0.25-0.69,0.85-0.45,1.34l1.58,3.15c-0.88,0.61-1.76,1.3-2.6,2.06l-2.37-2.37   c-0.39-0.39-1.02-0.39-1.41,0s-0.39,1.02,0,1.41l2.36,2.36c-3.06,3.27-5.61,7.84-6.8,14.24c-0.02,0.08-0.03,0.17-0.04,0.25   c-0.25-0.07-0.51-0.12-0.78-0.12C1.73,25.44,0,27.82,0,30.86s1.73,5.42,3.94,5.42c0.4,0,0.8-0.1,1.18-0.27   c0.7,2.67,1.86,5.18,3.46,7.38c3.18,4.38,9.45,9.61,21.26,9.61l0.55,0l0.58,0c9.35,0,16.7-3.32,21.26-9.61   c2.88-3.97,4.35-8.95,4.23-14.08c0.03,0,0.07,0.01,0.1,0.01c0.23,0,0.45-0.03,0.67-0.08C59.36,28.75,60.5,26.03,59.79,23.07z    M4.67,33.99c-0.21,0.17-0.46,0.3-0.73,0.3C3.02,34.29,2,32.88,2,30.86s1.02-3.42,1.94-3.42c0.17,0,0.34,0.05,0.5,0.14   c-0.05,0.53-0.08,1.06-0.1,1.59c0,0.04,0,0.09,0,0.13c-0.01,0.43-0.01,0.86,0,1.29c0,0.15,0.01,0.3,0.02,0.45   c0.02,0.34,0.04,0.68,0.07,1.02c0.01,0.16,0.02,0.31,0.04,0.47c0.05,0.43,0.11,0.86,0.17,1.29C4.66,33.87,4.66,33.93,4.67,33.99z    M50.59,42.23c-4.23,5.83-10.83,8.78-19.64,8.78l-0.58,0l-0.55,0c-8.8,0-15.41-2.95-19.64-8.78c-2.06-2.84-3.33-6.26-3.73-9.87   c-0.01-0.08-0.01-0.15-0.02-0.23c-0.06-0.57-0.09-1.15-0.1-1.73c-0.01-0.25,0-0.5,0-0.76c0-0.4,0.02-0.81,0.05-1.22   c0.02-0.3,0.04-0.6,0.07-0.9c0.06-0.62,0.14-1.24,0.25-1.86c1.09-5.91,3.45-10.14,6.26-13.18l1.21,1.21   c0.2,0.2,0.45,0.29,0.71,0.29s0.51-0.1,0.71-0.29c0.39-0.39,0.39-1.02,0-1.41l-1.2-1.2c0.68-0.61,1.38-1.17,2.09-1.67l0.51,1.03   C17.18,10.8,17.53,11,17.9,11c0.15,0,0.3-0.03,0.45-0.11c0.49-0.25,0.69-0.85,0.45-1.34l-0.61-1.22c0.79-0.46,1.59-0.87,2.37-1.22   l0.4,1.2C21.09,8.74,21.48,9,21.9,9c0.1,0,0.21-0.02,0.32-0.05c0.52-0.17,0.81-0.74,0.63-1.26l-0.44-1.31   c1.14-0.41,2.23-0.71,3.22-0.93l0.29,1.72C26,7.65,26.42,8,26.9,8c0.05,0,0.11,0,0.17-0.01c0.54-0.09,0.91-0.61,0.82-1.15   l-0.29-1.76c1.03-0.15,1.82-0.21,2.31-0.23V7c0,0.55,0.45,1,1,1s1-0.45,1-1V4.92c0.67,0.06,1.53,0.18,2.52,0.37l-0.47,1.4   c-0.17,0.52,0.11,1.09,0.63,1.26C34.69,7.98,34.8,8,34.9,8c0.42,0,0.81-0.26,0.95-0.68l0.53-1.58c0.64,0.18,1.32,0.39,2.01,0.64   l-0.44,1.31c-0.17,0.52,0.11,1.09,0.63,1.26C38.69,8.98,38.8,9,38.9,9c0.42,0,0.81-0.26,0.95-0.68l0.4-1.2   c0.52,0.23,1.05,0.5,1.58,0.78l-0.83,1.65c-0.25,0.49-0.05,1.09,0.45,1.34C41.6,10.97,41.75,11,41.9,11c0.37,0,0.72-0.2,0.9-0.55   l0.76-1.52c3.52,2.29,6.94,5.85,9.04,11.43l0,0l0.18,0.51c0.26,0.73,0.48,1.45,0.68,2.19c0.03,0.1,0.06,0.2,0.09,0.31   c0.2,0.75,0.37,1.51,0.52,2.29c0,0.01,0,0.01,0,0.02c0.12,0.66,0.2,1.32,0.27,1.98c0.01,0.13,0.03,0.25,0.04,0.38   C54.79,33.2,53.46,38.27,50.59,42.23z M56.75,27.31c-0.14,0.03-0.28,0.03-0.44,0c0-0.04-0.01-0.07-0.02-0.11   c-0.07-0.63-0.15-1.25-0.27-1.88c0-0.01,0-0.01,0-0.02c0-0.02-0.01-0.04-0.01-0.06c-0.14-0.75-0.3-1.48-0.48-2.18   c-0.01-0.05-0.03-0.1-0.04-0.15c-0.19-0.73-0.4-1.44-0.62-2.12c0.1-0.07,0.2-0.12,0.31-0.14c0.9-0.21,2.2,0.9,2.67,2.88   C58.31,25.5,57.64,27.1,56.75,27.31z"></path><path d="M23,33c2.45,0,4.61-1.27,5.86-3.18C30.3,32.87,33.4,35,37,35c4.96,0,9-4.04,9-9s-4.04-9-9-9c-3.6,0-6.7,2.13-8.14,5.18   C27.61,20.27,25.45,19,23,19c-3.86,0-7,3.14-7,7S19.14,33,23,33z M37,19c3.86,0,7,3.14,7,7s-3.14,7-7,7s-7-3.14-7-7S33.14,19,37,19   z M23,21c2.76,0,5,2.24,5,5s-2.24,5-5,5s-5-2.24-5-5S20.24,21,23,21z"></path><circle cx="23" cy="26" r="2"></circle><circle cx="37" cy="26" r="3"></circle><path d="M45.29,41.03c-1.18,1.18-3.41,1.18-4.59,0c-1.94-1.94-5.47-1.94-7.41,0c-1.18,1.18-3.41,1.18-4.59,0   c-1.94-1.94-5.47-1.94-7.41,0c-1.22,1.22-3.45,1.31-4.59,0.17c-0.39-0.39-1.02-0.39-1.41,0s-0.39,1.02,0,1.41   c0.92,0.92,2.22,1.37,3.54,1.37c1.41,0,2.85-0.52,3.88-1.54c1.18-1.18,3.41-1.18,4.59,0c0.93,0.93,2.28,1.47,3.71,1.47   s2.78-0.53,3.71-1.47c1.18-1.18,3.41-1.18,4.59,0c0.93,0.93,2.28,1.47,3.71,1.47s2.78-0.53,3.71-1.47c0.39-0.39,0.39-1.02,0-1.41   S45.68,40.64,45.29,41.03z"></path><path d="M16.55,17.26c1,0.5,2.07,0.74,3.12,0.74c2.57,0,5.05-1.42,6.27-3.87c0.25-0.49,0.05-1.09-0.45-1.34   c-0.49-0.25-1.09-0.05-1.34,0.45c-1.23,2.47-4.24,3.47-6.71,2.24c-0.49-0.25-1.09-0.05-1.34,0.45   C15.86,16.41,16.06,17.01,16.55,17.26z"></path><path d="M46.6,14.79c-1.2,0.6-2.55,0.69-3.82,0.27c-1.27-0.42-2.29-1.31-2.89-2.51c-0.25-0.49-0.85-0.69-1.34-0.45   c-0.49,0.25-0.69,0.85-0.45,1.34c0.84,1.67,2.27,2.92,4.05,3.51c0.73,0.24,1.47,0.36,2.22,0.36c1.07,0,2.14-0.25,3.13-0.74   c0.49-0.25,0.69-0.85,0.45-1.34C47.7,14.74,47.1,14.55,46.6,14.79z"></path></g></svg>