<svg fill="#000000" xmlns="http://www.w3.org/2000/svg" data-name="Layer 1" viewBox="0 0 32 32" x="0px" y="0px"><title>noun project 1</title><path d="M19,15.5l-3.2-5.55a1,1,0,0,0-.87-.5H8.52a1,1,0,0,0-.87.5L4.45,15.5a1,1,0,0,0,0,1l3.2,5.55a1,1,0,0,0,.87.5h6.41a1,1,0,0,0,.87-.5L19,16.5a1,1,0,0,0,0-1m-4.66,5H9.1L6.48,16,9.1,11.46h5.25L17,16Z"/><path d="M27.79,16.83a1,1,0,0,0-.87-.5H20.51a1,1,0,0,0-.87.5l-3.2,5.55a1,1,0,0,0,0,1l3.2,5.55a1,1,0,0,0,.87.5h6.41a1,1,0,0,0,.87-.5L31,23.39a1,1,0,0,0,0-1Zm-1.45,10.6H21.09l-2.62-4.54,2.62-4.54h5.25L29,22.88Z"/><path d="M19.63,15.17a1,1,0,0,0,.87.5h6.41a1,1,0,0,0,.87-.5L31,9.62a1,1,0,0,0,0-1l-3.2-5.55a1,1,0,0,0-.87-.5H20.51a1,1,0,0,0-.87.5L16.43,8.61a1,1,0,0,0,0,1Zm1.46-10.6h5.25L29,9.12l-2.62,4.54H21.09L18.47,9.12Z"/></svg>