<svg xmlns="http://www.w3.org/2000/svg" xmlns:xlink="http://www.w3.org/1999/xlink" version="1.1" x="0px" y="0px" width="100px" height="100px" viewBox="0 0 100 100" enable-background="new 0 0 100 100" xml:space="preserve">
<g id="Captions">
</g>
<g id="Your_Icon">
	<g>
		<path d="M50,25.236C17.013,25.236,5,50,5,50s12.013,24.764,45,24.764S95,50,95,50S82.987,25.236,50,25.236z M10.468,50.013    c2.61-4.016,9.625-12.901,22.709-17.368C28.643,37.041,25.813,43.186,25.813,50c0,6.84,2.851,13.005,7.415,17.404    C20.061,62.967,13.078,54.072,10.468,50.013z M50,69.751c-10.891,0-19.751-8.86-19.751-19.751S39.109,30.249,50,30.249    S69.751,39.109,69.751,50S60.891,69.751,50,69.751z M66.823,67.356c4.534-4.397,7.363-10.542,7.363-17.356    c0-6.84-2.851-13.005-7.415-17.404c13.168,4.438,20.15,13.332,22.761,17.392C86.922,54.003,79.907,62.889,66.823,67.356z"/>
		<path d="M50,34.846c-8.368,0-15.154,6.786-15.154,15.154S41.632,65.154,50,65.154S65.154,58.368,65.154,50    S58.368,34.846,50,34.846z M54.512,50.702c-2.613,0-4.731-2.118-4.731-4.73c0-2.613,2.118-4.731,4.731-4.731    c2.612,0,4.73,2.118,4.73,4.731C59.242,48.584,57.124,50.702,54.512,50.702z"/>
	</g>
</g>
</svg>
