<?xml version="1.0" encoding="UTF-8" standalone="no"?>
<!-- Generator: Adobe Illustrator 16.0.0, SVG Export Plug-In . SVG Version: 6.00 Build 0)  -->

<svg
   xmlns:dc="http://purl.org/dc/elements/1.1/"
   xmlns:cc="http://creativecommons.org/ns#"
   xmlns:rdf="http://www.w3.org/1999/02/22-rdf-syntax-ns#"
   xmlns:svg="http://www.w3.org/2000/svg"
   xmlns="http://www.w3.org/2000/svg"
   xmlns:sodipodi="http://sodipodi.sourceforge.net/DTD/sodipodi-0.dtd"
   xmlns:inkscape="http://www.inkscape.org/namespaces/inkscape"
   version="1.1"
   id="US_UK_Download_on_the"
   x="0px"
   y="0px"
   width="135px"
   height="40px"
   viewBox="0 0 135 40"
   enable-background="new 0 0 135 40"
   xml:space="preserve"
   inkscape:version="0.48.5 r10040"
   sodipodi:docname="windows.svg"><metadata
     id="metadata10398"><rdf:RDF><cc:Work
         rdf:about=""><dc:format>image/svg+xml</dc:format><dc:type
           rdf:resource="http://purl.org/dc/dcmitype/StillImage" /><dc:title></dc:title></cc:Work></rdf:RDF></metadata><defs
     id="defs10396" /><sodipodi:namedview
     pagecolor="#ffffff"
     bordercolor="#666666"
     borderopacity="1"
     objecttolerance="10"
     gridtolerance="10"
     guidetolerance="10"
     inkscape:pageopacity="0"
     inkscape:pageshadow="2"
     inkscape:window-width="1474"
     inkscape:window-height="921"
     id="namedview10394"
     showgrid="false"
     inkscape:zoom="2.4296296"
     inkscape:cx="-4.8718604"
     inkscape:cy="20"
     inkscape:window-x="0"
     inkscape:window-y="0"
     inkscape:window-maximized="0"
     inkscape:current-layer="US_UK_Download_on_the" /><g
     id="g10332"><path
       fill="#A6A6A6"
       d="M130.197,40H4.729C2.122,40,0,37.872,0,35.267V4.726C0,2.12,2.122,0,4.729,0h125.468   C132.803,0,135,2.12,135,4.726v30.541C135,37.872,132.803,40,130.197,40L130.197,40z"
       id="path10334"
       style="fill:#000000;fill-opacity:1" /><path
       d="M134.032,35.268c0,2.116-1.714,3.83-3.834,3.83H4.729c-2.119,0-3.839-1.714-3.839-3.83V4.725   c0-2.115,1.72-3.835,3.839-3.835h125.468c2.121,0,3.834,1.72,3.834,3.835L134.032,35.268L134.032,35.268z"
       id="path10336" /><g
       id="g10338"><g
         id="g10340" /></g><g
       id="g10346" /><g
       id="g10364"><g
         id="g10366" /></g></g><path
     id="path5097"
     d="m 6.178889,10.881744 10.710294,-1.4586317 0.0047,10.3309447 -10.705191,0.06096 z m 10.705192,10.062639 0.0083,10.339949 -10.705192,-1.471807 -6e-4,-8.937499 z m 1.298338,-11.7120857 14.20096,-2.072612 0,12.4629797 -14.20096,0.11274 z M 32.38668,21.041621 32.38338,33.448479 18.18242,31.444174 18.16252,21.018392 z"
     style="fill:#00adef"
     inkscape:connector-curvature="0" /><text
     xml:space="preserve"
     style="font-size:12px;font-style:normal;font-weight:normal;line-height:125%;letter-spacing:0px;word-spacing:0px;fill:#000000;fill-opacity:1;stroke:none;font-family:Sans"
     x="40.998665"
     y="13.03858"
     id="text5106"
     sodipodi:linespacing="125%"><tspan
       sodipodi:role="line"
       id="tspan5108"
       x="40.998665"
       y="13.03858"
       style="font-style:normal;font-variant:normal;font-weight:normal;font-stretch:normal;fill:#ffffff;fill-opacity:1;font-family:Corbel;-inkscape-font-specification:Corbel;font-size:10px">Download for</tspan></text>
<text
     xml:space="preserve"
     style="font-size:12px;font-style:normal;font-variant:normal;font-weight:normal;font-stretch:normal;line-height:125%;letter-spacing:0px;word-spacing:0px;fill:#ffffff;fill-opacity:1;stroke:none;font-family:Corbel;-inkscape-font-specification:Corbel"
     x="40.961422"
     y="29.268955"
     id="text5878"
     sodipodi:linespacing="125%"><tspan
       sodipodi:role="line"
       id="tspan5880"
       x="40.961422"
       y="29.268955"
       style="font-size:18px;font-weight:bold;-inkscape-font-specification:Corbel Bold">Windows</tspan></text>
</svg>